<?xml version="1.0" encoding="utf-8"?>
<!DOCTYPE svg PUBLIC "-//W3C//DTD SVG 1.0//EN"
"http://www.w3.org/TR/2000/CR-SVG-20001102/DTD/svg-20001102.dtd">
<svg xml:space="default" width="1920" height="1080">
<path fill="none" stroke="#960013" stroke-width="8" d="M 450.245,738.806 424.615,748.133 425.119,761.690" />
<path fill="none" stroke="#960013" stroke-width="8" d="M 453.702,774.289 425.119,761.690 408.043,754.163 350.172,775.221" />
<path fill="none" stroke="#960013" stroke-width="8" d="M 140.390,1097.869 -57.843,1146.175 -104.307,1027.714 -276.476,613.486 82.636,582.190 273.727,559.244 299.538,657.921 350.172,775.221 365.250,810.153 345.736,844.885 338.743,857.331" />
<path fill="none" stroke="#960013" stroke-width="7" d="M 450.253,853.234 426.283,840.866 404.603,829.679 346.444,854.097 338.743,857.331 325.415,862.926 326.787,878.610 332.927,948.787 395.188,991.115" />
<path fill="none" stroke="#960013" stroke-width="6" d="M 470.461,863.661 464.399,860.533" />
<path fill="none" stroke="#960013" stroke-width="6" d="M 560.197,836.817 560.601,821.409 540.111,812.377 528.169,807.113" />
<path fill="none" stroke="#960013" stroke-width="6" d="M 450.938,810.224 427.295,820.151 425.523,820.895 426.283,840.866" />
<path fill="none" stroke="#960013" stroke-width="7" d="M 636.513,800.052 637.417,785.401 570.999,759.816 540.765,772.510 511.929,784.617" />
<path fill="none" stroke="#960013" stroke-width="6" d="M 649.222,931.674 664.038,939.036 721.301,903.280 730.089,821.099 653.814,791.717 636.513,800.052 593.890,820.586 593.250,835.800" />
<path fill="none" stroke="#960013" stroke-width="6" d="M 551.153,972.795 581.810,990.381 647.965,949.072 649.222,931.674 654.206,862.668 633.217,853.417 593.250,835.800 577.093,828.678 560.197,836.817 510.692,860.666 508.056,861.936 508.013,896.209" />
<path fill="none" stroke="#960013" stroke-width="8" d="M 516.810,1030.968 454.569,1031.484 424.778,975.203 407.847,943.219 431.145,903.954 435.272,896.999 471.023,896.611 508.013,896.209 533.012,895.937 541.410,912.485 546.647,922.805 563.030,950.291 551.153,972.795 541.441,991.198 516.810,1030.968" />
<path fill="none" stroke="#987c81" stroke-width="2" d="M 451.667,601.733 450.112,600.329 450.059,600.280 450.050,600.135 448.729,599.123 448.351,598.833 448.344,598.828 448.345,598.830 448.912,599.636 449.058,599.844 449.107,599.878" />
<path fill="none" stroke="#987c81" stroke-width="2" d="M 446.049,597.805 445.959,597.456 445.918,597.300 445.425,596.039 444.955,593.427 444.616,592.770 444.570,592.681 444.616,592.763 445.134,593.691 445.784,593.519 447.117,596.015 447.142,596.062 447.305,596.366 447.356,597.377 448.790,598.944 448.683,599.073 448.610,599.161 449.076,599.840 449.140,599.933 449.192,599.985" />
<path fill="none" stroke="#987c81" stroke-width="8" d="M 446.044,597.645 445.959,597.456 445.872,597.264 444.988,595.192 444.866,594.664 444.611,593.201 444.616,592.770 444.616,592.763 444.631,591.241 444.831,588.601 445.923,581.406 446.458,580.487 447.600,578.747 450.242,575.027 453.121,572.709 456.053,570.902 460.702,568.632 462.149,568.304 468.244,566.726 469.010,566.636 469.504,566.662 478.258,568.207 480.405,568.979 486.786,572.993 490.207,577.788 490.763,578.764 491.013,579.709 492.018,586.535 492.453,590.193 491.872,594.603 490.463,599.516 489.277,602.341" />
<path fill="none" stroke="#987c81" stroke-width="2" d="M 447.311,607.878 447.359,607.802 447.654,607.339 447.726,607.226 448.086,606.659 447.915,606.672 447.625,607.134 447.617,607.147 447.327,607.608 447.359,607.802" />
<path fill="none" stroke="#987c81" stroke-width="2" d="M 448.460,616.598 448.567,616.810 448.766,616.904 449.641,617.319 450.686,617.536 451.288,617.647 451.877,617.756 452.335,617.841 452.957,617.937 453.078,617.955 453.141,617.965 453.621,618.039 453.745,618.130 453.809,618.177 453.850,618.130" />
<path fill="none" stroke="#987c81" stroke-width="2" d="M 461.244,635.575 463.729,633.307 462.579,628.448 465.506,632.421 467.325,634.518 467.381,636.258 469.157,637.712 469.597,638.061" />
<path fill="none" stroke="#987c81" stroke-width="2" d="M 439.424,642.503 439.758,642.487 442.210,643.312 442.301,645.222 443.534,645.548" />
<path fill="none" stroke="#987c81" stroke-width="2" d="M 457.306,657.495 460.865,657.969 461.177,659.343 460.459,665.412 459.362,674.953 459.665,675.601 459.696,677.012 457.562,687.374 458.174,689.039 456.993,689.821 455.677,688.138 456.247,686.801 456.571,675.625 453.792,673.130 453.924,672.426 454.115,672.127 455.764,663.211 457.306,657.495" />
<path fill="none" stroke="#987c81" stroke-width="2" d="M 385.590,718.165 385.353,718.219 384.384,718.443 384.375,718.445 383.575,718.222 383.261,717.206 383.318,716.971 383.629,715.707 384.174,714.724 385.672,711.972 386.050,710.762" />
<path fill="none" stroke="#987c81" stroke-width="2" d="M 455.957,688.136 456.384,687.060 456.504,675.608 455.272,673.617" />
<path fill="none" stroke="#987c81" stroke-width="2" d="M 455.656,739.551 456.935,736.955" />
<path fill="none" stroke="#987c81" stroke-width="2" d="M 458.757,738.590 459.547,739.022 464.544,740.832 465.255,741.130" />
<path fill="none" stroke="#987c81" stroke-width="2" d="M 483.936,778.583 482.788,780.445 482.685,780.612 482.358,781.142 482.383,780.535 482.384,780.501 482.512,777.346 482.353,775.089" />
<path fill="none" stroke="#987c81" stroke-width="2" d="M 449.286,601.236 449.376,601.778 449.397,602.007 449.415,602.204 449.425,602.316 447.940,605.707 447.935,605.717" />
<path fill="none" stroke="#987c81" stroke-width="2" d="M 447.931,605.725 447.933,605.727 447.933,605.734" />
<path fill="none" stroke="#987c81" stroke-width="2" d="M 458.243,624.789 458.834,625.049 459.255,625.234 459.976,625.201 461.400,625.137 462.776,625.076 461.452,625.511 461.262,625.419" />
<path fill="none" stroke="#987c81" stroke-width="2" d="M 460.835,625.039 460.994,625.074 461.285,625.066 461.299,625.318" />
<path fill="none" stroke="#987c81" stroke-width="2" d="M 518.616,812.879 518.637,813.245" />
<path fill="none" stroke="#987c81" stroke-width="2" d="M 513.321,802.498 513.713,802.457 513.978,802.430" />
<path fill="none" stroke="#987c81" stroke-width="2" d="M 514.670,803.782 514.622,803.554 514.365,802.360" />
<path fill="none" stroke="#987c81" stroke-width="2" d="M 460.386,601.667 460.794,602.003 461.447,602.542 462.496,603.406 462.580,603.475 461.627,603.909" />
<path fill="none" stroke="#987c81" stroke-width="2" d="M 456.426,599.154 456.902,599.532 456.973,599.589 458.496,600.800 459.052,601.235 459.963,601.723 460.773,602.158 461.361,602.632 461.386,602.651 461.449,602.703 461.451,602.704 461.565,602.795 462.001,603.146 462.175,603.287 461.496,603.747" />
<path fill="none" stroke="#987c81" stroke-width="5" d="M 451.024,611.733 450.751,611.647 450.718,611.657 450.435,611.739 450.594,611.744 450.718,611.657 451.114,611.377 451.024,611.733" />
<path fill="none" stroke="#987c81" stroke-width="2" d="M 484.580,613.612 484.957,616.153 485.529,617.959 484.982,618.153 483.574,616.405 484.149,613.834 484.682,612.979 485.118,612.279 484.616,613.522 484.580,613.612" />
<path fill="none" stroke="#987c81" stroke-width="2" d="M 468.726,632.648 466.692,628.994 462.740,626.172 467.130,626.315 468.627,624.304 468.575,623.639" />
<path fill="none" stroke="#987c81" stroke-width="5" d="M 461.607,602.776 461.390,602.649" />
<path fill="none" stroke="#987c81" stroke-width="2" d="M 470.898,617.534 471.061,617.436 474.546,615.352 475.300,616.345" />
<path fill="none" stroke="#987c81" stroke-width="2" d="M 488.191,640.376 487.931,642.774 486.723,643.475 486.531,645.925" />
<path fill="none" stroke="#987c81" stroke-width="2" d="M 474.889,652.026 468.823,653.137 470.631,645.452" />
<path fill="none" stroke="#987c81" stroke-width="2" d="M 492.245,668.089 493.716,667.495 495.764,666.923 496.724,667.454 495.651,674.477 492.546,674.416 491.546,670.065 492.245,668.089" />
<path fill="none" stroke="#987c81" stroke-width="2" d="M 492.387,669.574 493.157,668.301 493.887,667.891" />
<path fill="none" stroke="#987c81" stroke-width="2" d="M 461.374,653.116 463.285,653.323 467.684,653.654 463.053,656.782 462.264,656.234 460.582,665.491 459.478,674.767 459.992,675.431 462.823,679.487 461.041,683.093 458.379,689.192" />
<path fill="none" stroke="#987c81" stroke-width="2" d="M 490.482,662.488 487.009,661.185 486.227,658.129 490.330,661.600 490.482,662.488" />
<path fill="none" stroke="#987c81" stroke-width="2" d="M 488.782,661.052 489.054,661.533 487.546,660.876" />
<path fill="none" stroke="#987c81" stroke-width="2" d="M 525.097,663.558 524.612,662.841 524.579,662.813 524.385,662.645 524.884,663.724" />
<path fill="none" stroke="#987c81" stroke-width="2" d="M 483.015,674.213 484.825,673.720 485.562,674.227 486.195,689.891 481.964,690.271 480.661,693.020 477.173,699.712 476.340,699.339 471.375,688.166 468.909,684.390 467.075,683.533 465.286,680.214 468.260,680.004 468.422,680.157 468.627,680.125 472.478,679.532" />
<path fill="none" stroke="#987c81" stroke-width="2" d="M 521.983,746.736 522.014,746.706 522.014,746.706 522.017,746.709 522.020,746.722 522.008,746.764 521.983,746.736" />
<path fill="none" stroke="#987c81" stroke-width="2" d="M 478.723,640.321 480.447,638.299" />
<path fill="none" stroke="#987c81" stroke-width="2" d="M 478.521,634.247 477.034,634.604 475.787,633.822" />
<path fill="none" stroke="#987c81" stroke-width="2" d="M 497.892,689.848 498.418,688.731 498.673,688.191 498.687,688.000" />
<path fill="none" stroke="#987c81" stroke-width="2" d="M 483.069,713.092 487.724,716.658 488.389,715.875 489.308,716.102 492.336,715.303 494.592,713.009 495.632,721.952 494.509,727.121 493.956,730.138 493.839,730.779 490.533,730.824 488.438,729.399 487.782,729.439 487.751,729.441 486.160,729.539 484.554,730.929 483.418,731.591 481.180,732.067 477.142,731.232 474.730,732.704 472.057,733.715 470.747,736.085 468.037,732.332 467.276,731.279 469.757,729.376 470.674,728.452 474.674,726.362 474.951,716.385 477.952,715.308 480.478,717.177 483.069,713.092" />
<path fill="none" stroke="#987c81" stroke-width="2" d="M 484.135,728.992 480.241,727.892 480.205,727.882 478.350,727.190" />
<path fill="none" stroke="#987c81" stroke-width="5" d="M 470.715,733.527 473.996,732.144 471.624,733.378 470.346,735.039 470.715,733.527" />
<path fill="none" stroke="#987c81" stroke-width="2" d="M 453.555,620.519 454.351,620.803 454.629,620.767 454.708,620.871 455.296,621.646 455.527,621.951" />
<path fill="none" stroke="#987c81" stroke-width="2" d="M 430.052,884.741 429.301,884.876 429.276,884.880 429.262,884.883 428.406,885.037" />
<path fill="none" stroke="#987c81" stroke-width="5" d="M 428.993,880.352 429.430,880.265" />
<path fill="none" stroke="#987c81" stroke-width="2" d="M 434.263,877.315 433.259,877.759" />
<path fill="none" stroke="#987c81" stroke-width="2" d="M 433.097,877.740 432.976,877.764" />
<path fill="none" stroke="#987c81" stroke-width="2" d="M 446.178,596.275 446.702,596.784 446.782,596.860 448.713,598.731 449.965,599.745" />
<path fill="none" stroke="#987c81" stroke-width="2" d="M 546.395,756.004 546.441,756.026" />
<path fill="none" stroke="#987c81" stroke-width="2" d="M 480.139,706.378 481.924,704.059" />
<path fill="none" stroke="#987c81" stroke-width="2" d="M 506.641,796.364 506.712,796.547" />
<path fill="none" stroke="#987c81" stroke-width="5" d="M 461.295,603.115 461.196,603.053 461.184,603.046 461.141,603.019 461.112,603.000 461.064,602.970 460.958,602.903" />
<path fill="none" stroke="#987c81" stroke-width="2" d="M 505.791,796.094 505.389,795.612" />
<path fill="none" stroke="#987c81" stroke-width="2" d="M 416.677,681.960 416.865,681.750" />
<path fill="none" stroke="#987c81" stroke-width="2" d="M 455.962,655.100 454.609,652.953 454.059,652.080" />
<path fill="none" stroke="#987c81" stroke-width="5" d="M 461.386,602.651 461.086,602.841 461.143,602.915 461.183,602.968 461.199,602.989 461.213,603.008 461.245,603.050 461.378,603.225 461.169,603.065 461.158,603.056 461.122,603.029 461.095,603.008 461.054,602.977 460.958,602.903 459.323,601.649 458.442,601.275 458.313,601.220 457.725,600.970 456.586,600.844 456.433,600.827 456.010,600.780 455.452,600.941 455.345,601.377 455.218,601.898 455.944,602.013" />
<path fill="none" stroke="#987c81" stroke-width="5" d="M 456.919,602.865 456.824,602.683 456.751,602.546 456.169,602.337 456.168,602.337 455.168,603.161 455.712,603.822 455.965,604.130 457.819,605.211 458.804,605.115 459.712,605.026 460.309,604.968 461.668,603.960 461.627,603.909 461.496,603.747 461.058,603.208 461.169,603.065" />
<path fill="none" stroke="#987c81" stroke-width="5" d="M 448.476,600.724 447.571,600.781 447.363,600.794 447.328,600.778 446.816,600.544 446.516,599.911 446.690,599.063" />
<path fill="none" stroke="#987c81" stroke-width="5" d="M 449.386,600.175 449.368,600.174 449.232,600.168 449.129,600.164 448.914,599.947 447.771,598.796 446.698,598.216 446.585,598.155 446.542,598.134 446.282,598.006 446.066,597.901 446.056,597.896 446.052,597.894 445.230,597.493 444.467,597.416 444.127,597.665 443.838,598.317 445.806,598.589 446.103,598.537 446.107,598.537 446.121,598.534 446.536,598.462" />
<path fill="none" stroke="#987c81" stroke-width="5" d="M 446.126,598.826 445.740,598.955 444.957,599.280 445.446,600.787 446.050,601.705 446.227,601.974 446.370,601.975 448.091,601.980 448.246,601.918 448.556,601.794 449.157,601.554 449.232,601.524 449.392,600.600 449.396,600.578 449.397,600.573 449.419,600.447" />
<path fill="none" stroke="#987c81" stroke-width="5" d="M 459.247,603.871 458.924,603.943 458.505,603.871 458.031,603.790 457.882,603.696 457.829,603.662 457.347,603.358 457.245,603.293" />
<path fill="none" stroke="#987c81" stroke-width="2" d="M 486.539,607.831 485.658,609.584 485.528,609.857 484.682,612.979 484.584,613.338 484.616,613.522 485.124,616.443 485.906,618.463 487.491,621.802 488.589,623.276 492.570,626.373 492.931,626.721 493.027,626.766 493.827,627.164 500.543,630.826 501.790,631.870 506.041,638.346 506.697,639.380 506.874,639.735 507.722,642.702 509.965,646.701 512.407,648.758 513.814,649.825 515.968,652.097 520.140,656.605 522.630,659.926 524.579,662.813 525.458,664.114 528.414,667.823 532.954,673.419 536.421,678.065 537.624,680.150 538.610,682.809 540.665,688.706 541.730,693.261 543.281,702.581 543.776,709.693 544.669,727.225 544.755,727.904 545.894,735.762 545.926,736.244 546.004,736.578 546.126,738.619 546.464,746.136 546.968,748.406 547.421,750.398 547.685,751.749 547.783,752.820 547.846,754.040 547.799,754.338 547.535,755.084 546.638,755.968 546.354,755.927 545.429,755.300 544.891,753.366 544.894,753.194 544.824,753.056 544.791,753.067 544.626,751.121 544.338,750.120 543.760,750.904 543.926,752.314 544.192,753.955 544.163,756.081 544.278,758.132 544.094,759.923 544.176,760.286 543.945,761.854 543.330,762.246 542.062,762.682 541.722,762.302 541.323,761.499 540.975,759.703 540.863,759.122 540.921,757.642 540.758,755.594 540.523,754.339 539.836,752.604 539.774,752.679 539.687,754.143 539.408,755.685 539.266,757.050 538.870,758.638 538.869,758.641 538.063,763.033 538.182,763.198 537.376,764.926 536.808,765.229 536.549,765.533 535.382,765.334 534.886,763.929 534.938,762.092 535.220,758.813 535.434,757.544 535.476,757.299 535.412,754.043 535.499,753.824 535.441,753.662 535.297,753.490 534.291,753.882 534.244,754.487 533.691,755.506 533.215,757.239 531.922,760.023 531.508,760.659 531.351,761.136 530.652,762.227 530.366,762.829 530.015,763.520 529.240,763.817 528.539,763.888 528.008,764.072 527.560,763.689 527.665,761.262 528.099,759.922 528.763,758.172 529.669,756.079 530.401,752.736 530.560,752.101 530.550,749.071 530.194,746.549 529.768,745.733 528.586,745.285 527.919,745.390 526.525,746.511 525.498,747.552 524.663,748.207 523.028,749.319 522.550,749.562 520.958,749.595 520.926,749.490 520.625,748.957 520.437,747.974 520.521,747.713 522.286,745.328 522.350,745.075 523.421,743.945 525.212,742.178 525.891,741.509 528.438,738.300 529.005,737.787 529.679,737.177 534.114,734.425 534.631,732.567 534.863,732.352 534.867,731.921 531.774,717.837 530.305,710.674 529.866,709.262 525.818,695.808 524.061,691.959 520.529,684.882 520.111,684.560 512.059,677.581 506.027,671.987 503.782,670.206 500.434,667.549 499.907,667.171 496.184,664.080 495.214,663.676 494.091,663.208 494.464,663.917 495.214,663.676" />
<path fill="none" stroke="#987c81" stroke-width="2" d="M 503.782,670.206 503.541,671.039 502.189,676.855 500.782,681.957 499.610,685.492 498.687,688.000 498.418,688.731 495.507,696.642 495.565,697.395 495.684,698.927 496.782,702.692 496.908,703.041 497.532,704.765 498.768,708.179 499.126,709.171 500.943,712.798 500.969,713.269 503.887,719.858 504.608,721.713 504.703,721.975 504.420,731.228 504.361,732.529 503.961,733.992 503.614,735.264 500.675,741.293 498.835,744.005 493.135,752.030 492.195,753.280 489.709,759.058 484.499,770.578 483.834,772.047 483.771,772.186 483.347,773.125 482.484,774.830 482.381,775.033 482.353,775.089 477.875,783.941 477.165,785.345 476.423,786.764 474.133,791.149 473.415,792.523 472.614,795.298 470.751,801.515 470.831,801.872 472.258,808.229 474.143,816.683 473.749,821.276 472.729,833.542 472.160,835.508 469.961,842.600 465.871,855.789 465.793,856.041 464.399,860.533 464.215,861.130 462.185,870.811 461.582,873.200 461.465,874.607 461.298,875.647 461.299,875.843 460.785,884.047 459.793,887.059 459.664,887.276 459.533,887.347 457.645,888.908 457.570,888.918 457.481,888.918 450.832,889.033 449.764,889.051 449.363,889.130 441.900,890.592 441.506,890.654 441.433,890.634 438.164,888.305 437.912,888.452 437.813,888.363 437.285,888.399 436.949,888.422 436.529,888.514 436.340,888.556 435.249,888.010 435.080,887.797 434.918,887.593 434.913,886.474 435.244,885.958 435.627,885.984 435.656,885.726 436.805,885.502 435.698,885.918 437.209,886.595 437.446,887.527" />
<path fill="none" stroke="#987c81" stroke-width="2" d="M 437.285,888.399 441.365,890.618 437.239,888.866 436.529,888.514" />
<path fill="none" stroke="#987c81" stroke-width="2" d="M 434.777,887.607 434.500,887.422 434.173,887.419 433.993,887.417 433.032,887.280 431.753,886.748 431.625,886.361 431.486,885.940 431.491,885.855 431.558,884.683 431.614,884.666 432.110,884.516 433.744,883.821 434.936,883.646 435.149,883.610 435.635,883.528 435.185,883.591 435.149,883.610" />
<path fill="none" stroke="#987c81" stroke-width="5" d="M 482.484,774.830 482.541,775.547 482.695,779.476 482.711,779.873 482.735,780.050 482.788,780.445 482.815,780.644 482.685,780.612 482.383,780.535 482.362,780.530 482.384,780.501 482.735,780.050 483.189,779.466 483.907,778.542 483.351,776.915 485.405,774.405 485.283,773.121 484.212,772.328 483.834,772.047" />
<path fill="none" stroke="#987c81" stroke-width="2" d="M 484.499,770.578 485.098,770.544 489.458,771.056 492.735,772.225 497.541,774.270 499.220,775.085 501.631,776.841 511.929,784.617 514.493,786.553 514.613,787.005 520.307,788.976 521.269,789.457 521.991,789.819 522.302,790.001 522.374,790.510 523.470,790.305 527.230,790.033 530.067,790.357 530.774,790.628 531.548,791.142 532.538,792.452 532.934,794.444 532.960,796.674 530.413,802.143 530.366,802.284 530.256,802.467 530.103,802.801 528.858,805.642 528.169,807.113 526.613,810.435 526.552,810.849 526.724,812.495 526.969,819.040 526.465,821.373 526.055,822.153 523.896,825.732 523.405,826.448 523.448,826.952 522.518,829.383 521.129,830.338 520.219,830.550 519.530,830.546 519.335,829.487 518.932,828.526 518.828,828.275 518.903,827.186 518.865,826.770 519.079,825.978 519.593,824.545 519.688,823.520 519.724,823.125 519.491,823.607 519.688,823.520" />
<path fill="none" stroke="#987c81" stroke-width="2" d="M 516.938,826.673 516.213,826.633 516.208,826.159 516.218,825.276 515.992,825.056 515.983,824.210 516.050,823.487 516.103,822.926 516.723,821.563 517.318,820.198 517.361,820.098 517.377,819.856 517.494,818.115 517.275,819.863 517.377,819.856" />
<path fill="none" stroke="#987c81" stroke-width="6" d="M 516.050,823.487 515.882,823.480 515.676,822.892 515.745,822.574 515.617,820.772 515.580,820.246 515.613,820.202 515.606,820.173 515.638,820.064 516.725,818.077 517.096,818.002 517.115,817.998 516.950,817.551" />
<path fill="none" stroke="#987c81" stroke-width="2" d="M 517.580,812.396 517.569,812.253 517.064,810.638 516.187,806.880 515.891,805.025 515.192,804.243 514.622,803.554 513.713,802.457 513.512,802.215 512.721,801.964 511.162,800.339 510.844,800.228 503.909,797.818 501.256,796.724 490.192,793.744 489.763,793.628 483.694,791.921 483.056,791.884 481.641,791.884 476.142,791.112 474.173,791.151 474.133,791.149" />
<path fill="none" stroke="#987c81" stroke-width="8" d="M 387.171,717.281 387.673,717.408 387.211,717.749 385.974,718.200 385.658,718.529 385.625,718.875 385.117,719.428 384.087,720.552 383.243,722.853 382.283,724.895 381.780,726.413 381.015,728.073 380.206,728.557 378.825,728.929 378.124,728.609 378.191,728.090 378.634,726.765" />
<path fill="none" stroke="#987c81" stroke-width="8" d="M 381.988,717.207 381.689,717.090 381.683,717.103 381.566,717.354 381.077,718.026 379.406,719.582 378.657,720.914 377.344,723.250 376.133,724.937 375.480,725.823 375.056,726.397 374.132,726.417 373.243,726.461 373.578,724.843 373.868,724.067 373.736,722.972 373.930,722.387 375.334,719.731 376.409,717.546 377.431,716.370 379.230,714.025 379.963,712.699 382.769,709.547 388.202,704.400 390.998,701.620 392.272,700.453 396.279,697.136 404.507,687.747 407.064,684.925 419.284,672.348 424.256,667.240 425.945,666.082 428.408,663.291 430.271,661.760 433.991,653.686 435.374,650.783 436.109,648.310 439.171,639.982 439.610,637.927 441.397,632.097 441.711,631.775 444.620,627.813 445.515,627.169 449.388,624.911 451.568,624.114" />
<path fill="none" stroke="#987c81" stroke-width="2" d="M 460.730,626.584 460.737,626.658 460.742,626.707 460.764,626.914 460.767,626.940 460.751,626.933 460.707,626.914 460.688,626.905 460.633,626.881 460.582,626.858 460.466,626.198 460.439,626.044 460.424,625.962 460.316,625.348 460.188,625.392 460.117,625.417 460.039,625.443 459.976,625.201" />
<path fill="none" stroke="#987c81" stroke-width="2" d="M 448.597,612.231 448.527,612.204 447.938,611.757 447.889,611.583 447.607,611.308 446.911,609.762 446.718,608.951 447.311,607.878" />
<path fill="none" stroke="#987c81" stroke-width="2" d="M 450.494,618.586 450.902,619.258 451.074,619.165" />
<path fill="none" stroke="#987c81" stroke-width="2" d="M 453.432,618.131 453.774,618.325 454.392,618.677 454.839,618.697 455.699,618.735 456.783,618.394 456.079,618.260 455.717,618.191 455.388,618.129 453.850,618.130 453.745,618.130 453.432,618.131 453.327,618.131 453.030,618.085 452.785,618.047 452.571,618.014 451.799,617.893" />
<path fill="none" stroke="#987c81" stroke-width="2" d="M 451.799,617.893 451.787,617.891 451.494,617.845 451.269,617.809 450.962,617.761 450.904,617.752 450.552,617.697 450.546,617.696 450.094,617.625 450.073,617.622 450.056,617.612 450.052,617.609 449.879,617.528 449.261,617.182 449.210,617.153 448.766,616.904 448.594,616.807 448.544,616.707 448.419,616.456 448.212,616.106 448.514,616.691 448.544,616.707 448.635,616.755 449.463,616.652" />
<path fill="none" stroke="#987c81" stroke-width="2" d="M 392.200,710.632 390.785,711.498 389.893,712.043 389.845,712.363 389.424,713.439 387.987,715.592 387.434,717.058 387.171,717.281 386.953,717.466 385.590,718.165" />
<path fill="none" stroke="#987c81" stroke-width="2" d="M 486.833,600.709 487.587,600.397 489.041,601.443 489.026,602.090 489.277,602.341 489.286,602.350 489.193,603.709 488.861,604.848 487.136,607.255 486.539,607.831 485.625,608.714 484.218,609.230 483.717,609.414 481.844,611.072 481.537,611.021 481.272,610.977 480.693,610.556 480.387,610.334 480.659,610.591 480.693,610.556" />
<path fill="none" stroke="#960013" stroke-width="8" d="M 326.787,878.610 294.908,935.348 140.390,1097.869" />
<path fill="none" stroke="#987c81" stroke-width="8" d="M 384.384,718.443 383.904,719.015 383.083,719.551 381.275,721.345 379.211,725.893 379.127,726.065 378.634,726.765 377.443,728.459 376.323,729.868 374.441,729.467 374.410,728.978 375.157,727.210 375.064,726.762 375.480,725.823" />
<path fill="none" stroke="#987c81" stroke-width="5" d="M 428.097,884.690 427.953,884.717 426.921,884.908 426.684,884.944 425.495,884.368 425.186,884.032 424.816,883.630 424.496,882.836 425.113,882.335 426.188,881.332 426.580,881.185 426.933,880.875 427.798,880.655 428.993,880.352" />
<path fill="none" stroke="#987c81" stroke-width="2" d="M 425.186,884.032 425.061,884.051 423.928,883.780 422.448,883.312 422.235,882.897 421.961,882.492 422.067,880.988 422.978,880.209 424.016,879.623 425.683,878.853 425.958,878.788 427.714,878.446 427.885,878.413 430.355,877.931 433.194,877.513 433.361,877.463 441.351,874.982 444.847,873.178 445.563,872.887 446.373,871.940 448.371,870.079 448.541,868.712 449.776,865.530 449.858,863.387 450.221,853.946 450.253,853.234 450.610,845.186 450.281,834.693 450.373,832.867 450.630,827.759 451.605,815.415 451.592,813.466 450.938,810.224 449.760,804.378 449.583,802.588 449.644,800.421 449.908,795.554 453.541,775.166 453.702,774.289 453.955,772.912 454.204,771.984 455.933,766.141 456.836,763.089 458.872,756.369 459.091,755.816 462.746,747.405 465.082,742.028 465.255,741.130 465.255,741.129 465.615,739.262 466.182,738.976 469.030,739.086" />
<path fill="none" stroke="#987c81" stroke-width="2" d="M 431.491,885.855 431.238,885.812 430.944,885.881 429.636,886.192 429.178,886.070 428.098,884.701 428.097,884.690 428.042,884.214 427.963,883.535 428.533,883.070 428.709,882.926 429.163,882.651 430.823,882.276 431.485,881.980 432.251,882.005" />
<path fill="none" stroke="#987c81" stroke-width="5" d="M 431.625,886.361 430.944,885.881" />
<path fill="none" stroke="#987c81" stroke-width="2" d="M 443.289,652.856 442.600,650.347 442.976,646.445 443.680,646.396" />
<path fill="none" stroke="#987c81" stroke-width="2" d="M 455.933,766.141 455.448,765.175 453.738,760.986 452.475,756.466 451.110,749.654 450.340,740.985 450.251,738.923 450.245,738.806 450.233,738.551 450.919,734.087 448.753,726.393 448.575,725.435 449.317,713.927 449.466,711.588 449.321,709.818 448.477,704.019 447.624,695.499 446.963,690.754 445.801,679.774 444.934,670.613 444.477,669.454 444.473,669.442 442.574,664.055 442.364,660.315 442.454,658.200 443.126,653.871 443.289,652.856 444.015,648.338 443.680,646.396 443.534,645.548 443.393,644.734 443.379,643.938 443.429,643.775" />
<path fill="none" stroke="#987c81" stroke-width="8" d="M 444.473,669.442 439.376,675.672 438.887,676.206 437.612,677.340 434.282,680.109 424.951,687.705 421.210,690.276 406.590,700.022 402.104,703.512 399.539,705.408 398.855,706.868 397.918,709.129 395.273,712.086 395.038,712.340 395.023,712.354 395.000,712.376 389.678,716.681 388.957,717.935 388.646,718.406 388.562,718.737 387.539,722.401 386.676,724.275 386.080,725.376 385.957,725.451 384.569,724.931 384.359,724.834 384.457,723.494 385.117,719.428" />
<path fill="none" stroke="#987c81" stroke-width="2" d="M 446.126,598.826 446.103,598.537" />
<path fill="none" stroke="#987c81" stroke-width="2" d="M 446.130,598.825 446.107,598.537" />
<path fill="none" stroke="#987c81" stroke-width="8" d="M 446.055,597.775 446.044,597.645" />
<path fill="none" stroke="#987c81" stroke-width="8" d="M 446.145,598.820 446.121,598.534" />
<path fill="none" stroke="#987c81" stroke-width="5" d="M 446.512,597.945 446.424,597.823 446.503,597.883 446.548,597.918" />
<path fill="none" stroke="#987c81" stroke-width="5" d="M 446.282,598.006 446.055,597.776 446.053,597.774" />
<path fill="none" stroke="#987c81" stroke-width="5" d="M 446.690,599.063 446.626,598.659 446.583,598.391" />
<path fill="none" stroke="#987c81" stroke-width="5" d="M 446.626,598.659 446.145,598.820" />
<path fill="none" stroke="#987c81" stroke-width="2" d="M 447.654,607.339 447.625,607.134 447.603,606.977 447.290,605.332 447.961,603.141 446.351,602.717 446.370,601.975" />
<path fill="none" stroke="#987c81" stroke-width="2" d="M 449.107,599.878 449.076,599.840 448.912,599.636 448.183,598.730 447.838,598.300 447.448,598.277 446.784,598.236 446.726,598.174" />
<path fill="none" stroke="#987c81" stroke-width="2" d="M 449.157,601.554 449.238,601.615 449.457,601.585 449.478,602.055 449.485,602.211 449.490,602.316 448.695,604.430 448.131,605.649 447.926,606.105 447.502,607.063 447.617,607.147 447.726,607.226" />
<path fill="none" stroke="#987c81" stroke-width="5" d="M 449.232,600.168 448.914,599.947" />
<path fill="none" stroke="#987c81" stroke-width="2" d="M 449.210,617.153 449.206,617.174 449.261,617.182 449.499,617.215 450.864,617.512 451.278,617.731 451.494,617.845 451.554,617.876 451.787,617.891 451.800,617.892 452.402,617.929 452.967,617.956 453.063,617.960 453.139,617.964 453.202,617.967 453.255,617.900" />
<path fill="none" stroke="#987c81" stroke-width="5" d="M 449.396,600.578 449.461,600.575 449.773,600.594 449.681,600.498 449.368,600.174" />
<path fill="none" stroke="#987c81" stroke-width="2" d="M 449.386,600.175 449.707,600.490 449.681,600.498 449.468,600.560 449.397,600.573" />
<path fill="none" stroke="#987c81" stroke-width="2" d="M 449.363,889.130 450.661,889.127 450.760,889.101 450.832,889.033 452.292,887.651 451.783,887.597 452.772,886.903 453.674,886.685" />
<path fill="none" stroke="#987c81" stroke-width="2" d="M 450.904,617.752 450.682,617.873" />
<path fill="none" stroke="#987c81" stroke-width="2" d="M 451.994,618.542 451.419,618.560 451.370,618.562 451.180,618.559 450.665,618.552 450.178,617.907 450.056,617.612" />
<path fill="none" stroke="#987c81" stroke-width="8" d="M 460.470,625.034 460.180,625.037 460.040,625.038 459.934,625.039 458.834,625.049 457.823,625.057 454.588,625.085 452.606,624.455 451.662,624.194 451.568,624.114 451.353,623.929 451.010,623.725 450.529,622.260 449.363,619.774 446.796,614.658 446.750,614.513 446.703,614.198 445.945,607.055 445.763,604.745 446.050,601.705" />
<path fill="none" stroke="#987c81" stroke-width="2" d="M 451.074,619.165 451.674,618.839 451.683,618.830 451.994,618.542 452.396,618.169 452.785,618.047" />
<path fill="none" stroke="#987c81" stroke-width="2" d="M 456.168,602.337 455.984,601.998 455.984,601.998 456.090,601.529 455.345,601.377 455.080,601.323 454.454,600.758 454.184,600.514 453.923,600.279 454.603,599.308 452.863,598.003 454.527,596.704 454.663,596.597 455.312,596.090 456.939,596.355 457.796,597.958 457.916,598.183 458.211,598.736 458.075,599.895 458.542,600.810 459.343,601.191 460.386,601.667" />
<path fill="none" stroke="#987c81" stroke-width="2" d="M 456.824,602.683 456.771,602.485" />
<path fill="none" stroke="#987c81" stroke-width="2" d="M 457.058,602.991 456.919,602.865" />
<path fill="none" stroke="#987c81" stroke-width="2" d="M 457.931,601.141 457.911,601.131 457.704,601.025 457.592,601.071" />
<path fill="none" stroke="#987c81" stroke-width="2" d="M 459.135,601.462 458.883,601.338 458.313,601.220" />
<path fill="none" stroke="#987c81" stroke-width="2" d="M 460.188,625.392 460.424,625.962 460.701,626.628 460.764,626.914 461.475,630.139 460.585,627.693 460.688,626.905 460.730,626.584 460.743,626.480" />
<path fill="none" stroke="#987c81" stroke-width="2" d="M 460.466,626.198 460.705,626.728 460.751,626.933 461.434,629.986 460.631,627.565 460.707,626.914 460.737,626.658 460.763,626.440" />
<path fill="none" stroke="#987c81" stroke-width="2" d="M 460.633,626.881 460.481,627.121 459.333,632.288 460.838,635.043" />
<path fill="none" stroke="#987c81" stroke-width="2" d="M 460.439,626.044 460.384,626.093 459.773,630.658 460.924,632.255 461.567,633.938 463.140,635.072 465.565,636.095 467.059,634.513 467.464,632.583 467.190,628.522 465.080,626.618 467.167,626.341 468.938,624.228 468.065,623.587 469.631,622.294 471.411,618.172 474.515,619.307 479.329,615.831 478.700,619.470 478.561,621.932 475.055,622.958 472.381,624.085 472.040,625.574 473.954,626.945 475.708,626.017 479.259,625.591 481.456,624.862 483.646,626.272 484.860,627.878 486.214,629.076 487.442,631.098 485.707,635.312 486.519,637.431 488.396,638.957 486.321,640.072 484.333,641.083 483.676,641.927 480.216,642.766 478.631,645.064 476.324,648.426 474.887,651.997 471.331,653.993 467.991,656.497 465.718,654.366 463.951,651.924 461.424,646.210 459.280,645.595 458.145,645.643 454.360,648.270 449.571,646.241 450.906,640.731 451.733,637.326 452.977,633.179 452.739,630.911 453.833,630.044 456.713,627.634 457.823,625.057" />
<path fill="none" stroke="#987c81" stroke-width="5" d="M 461.279,602.925 461.565,602.795 461.607,602.776" />
<path fill="none" stroke="#987c81" stroke-width="2" d="M 462.746,747.405 462.462,746.555 461.430,743.903 459.769,739.105 464.593,740.851 465.255,741.129" />
<path fill="none" stroke="#987c81" stroke-width="2" d="M 483.771,772.186 484.212,772.328 486.231,772.977 487.339,774.742 484.359,778.586 484.564,779.439 483.189,779.466 482.695,779.476 482.369,779.482 482.607,778.013 482.381,775.033" />
<path fill="none" stroke="#960013" stroke-width="6" d="M 490.192,793.744 470.831,801.872" />
<path fill="none" stroke="#987c81" stroke-width="2" d="M 495.565,697.395 495.872,697.852 495.703,698.975 496.908,703.041 497.182,703.963 497.532,704.765 498.926,707.953 498.768,708.179 497.887,709.437 494.812,698.187 497.892,689.848" />
<path fill="none" stroke="#987c81" stroke-width="2" d="M 515.617,820.772 515.448,820.625 515.366,819.470 515.375,819.426 515.352,819.376 515.143,818.313 515.193,817.954 515.889,815.870 516.894,812.953 517.201,812.318 517.214,811.663" />
<path fill="none" stroke="#987c81" stroke-width="2" d="M 518.932,828.526 518.669,828.776 518.656,828.918 518.295,829.307 517.616,829.113 517.370,828.633 516.926,827.402 516.938,827.336 516.941,827.283 516.923,827.058 516.938,826.673 517.018,824.547 517.398,823.518 517.421,823.454 518.114,822.352 518.219,822.147 518.310,821.967 518.438,821.540" />
<path fill="none" stroke="#960013" stroke-width="8" d="M 525.212,742.178 503.961,733.992" />
<path fill="none" stroke="#960013" stroke-width="8" d="M 540.765,772.510 540.975,759.703" />
</svg>
