<?xml version="1.0" encoding="utf-8"?>
<!DOCTYPE svg PUBLIC "-//W3C//DTD SVG 1.0//EN"
"http://www.w3.org/TR/2000/CR-SVG-20001102/DTD/svg-20001102.dtd">
<svg xml:space="default" width="1920" height="1080">
<path fill="none" stroke="none" style="fill:#006d6d" stroke-width="8" d="M 626.672,751.607 1003.877,787.603 1240.194,456.810 1041.558,200.960 687.176,86.554 503.050,447.896 626.672,751.607 z" />
<path fill="none" stroke="#006d6d" stroke-width="2" d="M 687.176,86.554 856.798,363.704" />
<path fill="none" stroke="#006d6d" stroke-width="2" d="M 626.672,751.607 856.798,363.704 1240.194,456.810" />
<path fill="none" stroke="none" style="fill:#006d6d" stroke-width="8" d="M 1473.622,870.394 1586.047,790.968 1610.768,620.208 1441.260,554.911 1322.601,618.877 1309.810,788.996 1473.622,870.394 z" />
<path fill="none" stroke="#006d6d" stroke-width="2" d="M 1322.601,618.877 1494.756,692.563" />
<path fill="none" stroke="#006d6d" stroke-width="2" d="M 1473.622,870.394 1494.756,692.563 1610.768,620.208" />
<path fill="none" stroke="none" style="fill:#7c6468" stroke-width="8" d="M 918.138,956.185 940.056,934.792 940.056,946.998 958.693,946.998 958.693,957.497 940.055,957.499 940.056,987.684 940.156,989.321 940.441,990.760 940.888,992.013 941.475,993.089 942.179,994.000 942.976,994.755 943.844,995.365 944.761,995.841 945.703,996.192 946.648,996.431 947.573,996.566 948.455,996.609 949.508,996.578 950.567,996.488 951.634,996.338 952.709,996.127 953.793,995.857 954.886,995.526 955.991,995.135 957.108,994.684 958.237,994.172 959.380,993.601 960.538,992.969 961.711,992.277 961.711,1003.171 960.650,1003.717 959.513,1004.237 958.315,1004.727 957.074,1005.183 955.805,1005.601 954.525,1005.976 953.251,1006.305 951.999,1006.583 950.785,1006.807 949.626,1006.971 948.537,1007.073 947.537,1007.108 944.485,1006.947 941.697,1006.476 939.172,1005.712 936.911,1004.673 934.914,1003.377 933.182,1001.842 931.715,1000.085 930.514,998.125 929.579,995.979 928.910,993.665 928.509,991.200 928.375,988.603 928.376,957.497 918.138,957.497 918.138,956.185 z" />
<path fill="none" stroke="none" style="fill:#7c6468" stroke-width="8" d="M 902.845,945.908 904.226,945.817 905.402,945.863 906.569,946.003 907.730,946.237 908.887,946.565 910.043,946.988 911.198,947.506 912.357,948.120 913.520,948.830 914.690,949.637 915.871,950.541 917.063,951.542 918.269,952.641 912.100,962.747 911.194,961.917 910.255,961.135 909.291,960.405 908.314,959.734 907.333,959.124 906.359,958.580 905.400,958.108 904.469,957.711 903.574,957.395 902.725,957.163 901.933,957.021 901.207,956.973 899.244,957.136 897.368,957.612 895.594,958.381 893.940,959.422 892.421,960.715 891.052,962.239 889.850,963.973 888.831,965.897 888.011,967.991 887.405,970.234 887.030,972.605 886.901,975.084 886.901,1005.927 875.221,1005.927 875.221,946.998 886.901,946.998 886.901,960.516 887.164,960.516 888.635,958.049 890.096,955.827 891.546,953.845 892.987,952.097 894.419,950.577 895.843,949.278 897.258,948.196 898.665,947.324 900.065,946.655 901.458,946.185 902.845,945.908 z" />
<path fill="none" stroke="none" style="fill:#7c6468" stroke-width="8" d="M 825.241,946.085 829.547,945.817 834.062,946.075 838.335,946.831 842.338,948.058 846.040,949.730 849.415,951.819 852.433,954.298 855.066,957.142 857.284,960.322 859.059,963.812 860.363,967.585 861.166,971.614 861.440,975.872 861.173,980.401 860.390,984.657 859.114,988.615 857.371,992.253 855.185,995.549 852.581,998.479 849.583,1001.021 846.215,1003.151 842.504,1004.848 838.472,1006.089 834.145,1006.849 829.547,1007.108 825.131,1006.839 820.954,1006.052 817.046,1004.774 813.433,1003.035 810.143,1000.861 807.203,998.282 804.640,995.325 802.482,992.020 800.755,988.393 799.488,984.474 798.708,980.291 798.442,975.872 798.718,971.724 799.525,967.767 800.829,964.033 802.598,960.555 804.799,957.365 807.400,954.495 810.366,951.978 813.667,949.846 817.268,948.132 821.137,946.867 825.241,946.085 z" />
<path fill="none" stroke="none" style="fill:#7c6468" stroke-width="8" d="M 829.416,956.316 826.726,956.486 824.178,956.981 821.792,957.785 819.582,958.878 817.568,960.243 815.767,961.861 814.195,963.715 812.869,965.785 811.809,968.055 811.030,970.504 810.549,973.116 810.385,975.872 810.544,978.899 811.011,981.737 811.772,984.372 812.811,986.789 814.115,988.975 815.668,990.916 817.457,992.596 819.466,994.003 821.681,995.122 824.087,995.938 826.671,996.439 829.416,996.609 832.403,996.446 835.187,995.966 837.758,995.179 840.105,994.095 842.217,992.725 844.083,991.080 845.691,989.169 847.032,987.003 848.094,984.593 848.866,981.950 849.337,979.083 849.497,976.003 849.325,973.217 848.820,970.580 848.002,968.110 846.886,965.824 845.492,963.741 843.837,961.878 841.938,960.253 839.814,958.883 837.481,957.787 834.959,956.982 832.265,956.486 829.416,956.316 z" />
<path fill="none" stroke="none" style="fill:#7c6468" stroke-width="8" d="M 735.576,1036.113 735.576,946.998 755.787,946.998 760.962,947.216 765.721,947.866 770.056,948.942 773.963,950.439 777.433,952.352 780.462,954.676 783.042,957.404 785.167,960.531 786.831,964.052 788.028,967.961 788.750,972.253 788.993,976.922 788.737,981.238 787.988,985.310 786.772,989.113 785.114,992.623 783.040,995.813 780.576,998.659 777.749,1001.136 774.585,1003.219 771.108,1004.883 767.346,1006.103 763.324,1006.853 759.069,1007.108 758.122,1007.092 757.182,1007.041 756.245,1006.956 755.306,1006.836 754.362,1006.679 753.409,1006.485 752.441,1006.252 751.456,1005.980 750.450,1005.669 749.417,1005.316 748.354,1004.921 747.257,1004.483 747.257,1036.113 735.576,1036.113 z" />
<path fill="none" stroke="none" style="fill:#7c6468" stroke-width="8" d="M 757.887,957.497 747.257,957.497 747.257,993.984 748.148,994.394 749.048,994.771 749.957,995.114 750.873,995.422 751.794,995.697 752.720,995.936 753.648,996.140 754.577,996.307 755.507,996.438 756.435,996.533 757.360,996.589 758.281,996.609 760.939,996.437 763.454,995.933 765.809,995.118 767.988,994.008 769.974,992.623 771.750,990.981 773.299,989.102 774.604,987.003 775.649,984.704 776.415,982.223 776.888,979.579 777.049,976.791 776.915,973.847 776.514,971.123 775.845,968.627 774.910,966.364 773.709,964.342 772.242,962.567 770.510,961.046 768.513,959.787 766.252,958.796 763.727,958.079 760.939,957.644 757.887,957.497 z" />
<path fill="none" stroke="none" style="fill:#7c6468" stroke-width="8" d="M 687.278,976.003 662.472,946.998 677.172,946.998 694.627,967.210 711.427,946.998 726.389,946.998 702.108,976.003 728.095,1005.927 713.133,1005.927 694.627,984.796 677.172,1005.927 662.472,1005.927 687.278,976.003 z" />
<path fill="none" stroke="none" style="fill:#7c6468" stroke-width="8" d="M 628.587,946.065 632.548,945.817 636.333,946.038 639.867,946.705 643.136,947.818 646.125,949.380 648.818,951.392 651.202,953.855 653.259,956.773 654.977,960.147 656.339,963.978 657.330,968.268 657.936,973.020 658.141,978.234 616.668,978.234 617.228,981.037 617.990,983.603 618.952,985.931 620.114,988.019 621.475,989.867 623.033,991.474 624.788,992.836 626.740,993.954 628.886,994.826 631.226,995.451 633.760,995.827 636.486,995.952 638.250,995.898 639.999,995.737 641.735,995.472 643.461,995.107 645.178,994.642 646.887,994.082 648.591,993.429 650.291,992.686 651.989,991.855 653.687,990.939 655.387,989.942 657.091,988.865 657.091,1000.152 655.331,1001.282 653.583,1002.308 651.833,1003.232 650.067,1004.055 648.270,1004.778 646.427,1005.402 644.525,1005.927 642.547,1006.355 640.480,1006.686 638.310,1006.921 636.021,1007.062 633.598,1007.108 629.175,1006.802 625.099,1005.915 621.376,1004.496 618.014,1002.592 615.020,1000.253 612.402,997.527 610.167,994.462 608.321,991.106 606.873,987.508 605.830,983.715 605.199,979.777 604.987,975.741 605.218,971.402 605.898,967.326 607.005,963.535 608.516,960.049 610.410,956.892 612.665,954.085 615.259,951.650 618.170,949.608 621.376,947.982 624.856,946.794 628.587,946.065 z" />
<path fill="none" stroke="none" style="fill:#7c6468" stroke-width="8" d="M 632.811,955.923 630.654,956.031 628.645,956.355 626.786,956.888 625.077,957.629 623.520,958.571 622.114,959.712 620.862,961.047 619.764,962.572 618.821,964.283 618.034,966.176 617.403,968.247 616.930,970.491 646.591,970.491 646.396,968.329 646.008,966.313 645.435,964.449 644.681,962.747 643.752,961.215 642.654,959.860 641.392,958.691 639.971,957.716 638.397,956.944 636.675,956.382 634.811,956.039 632.811,955.923 z" />
<path fill="none" stroke="none" style="fill:#7c6468" stroke-width="8" d="M 529.235,946.065 533.196,945.817 536.980,946.038 540.514,946.705 543.784,947.818 546.772,949.380 549.466,951.392 551.849,953.855 553.907,956.773 555.624,960.147 556.986,963.978 557.977,968.268 558.583,973.020 558.789,978.234 517.315,978.234 517.875,981.037 518.637,983.603 519.600,985.931 520.761,988.019 522.122,989.867 523.680,991.474 525.436,992.836 527.387,993.954 529.533,994.826 531.874,995.451 534.407,995.827 537.133,995.952 538.897,995.898 540.646,995.737 542.383,995.472 544.109,995.107 545.825,994.642 547.534,994.082 549.238,993.429 550.938,992.686 552.636,991.855 554.335,990.939 556.035,989.942 557.739,988.865 557.739,1000.152 555.978,1001.282 554.230,1002.308 552.481,1003.232 550.714,1004.055 548.917,1004.778 547.075,1005.402 545.172,1005.927 543.195,1006.355 541.128,1006.686 538.957,1006.921 536.668,1007.062 534.246,1007.108 529.823,1006.802 525.746,1005.915 522.023,1004.496 518.661,1002.592 515.668,1000.253 513.050,997.527 510.814,994.462 508.969,991.106 507.521,987.508 506.478,983.715 505.846,979.777 505.634,975.741 505.866,971.402 506.546,967.326 507.652,963.535 509.163,960.049 511.057,956.892 513.312,954.085 515.906,951.650 518.817,949.608 522.023,947.982 525.503,946.794 529.235,946.065 z" />
<path fill="none" stroke="none" style="fill:#7c6468" stroke-width="8" d="M 533.458,955.923 531.301,956.031 529.292,956.355 527.433,956.888 525.724,957.629 524.167,958.571 522.762,959.712 521.510,961.047 520.411,962.572 519.468,964.283 518.681,966.176 518.050,968.247 517.578,970.491 547.239,970.491 547.043,968.329 546.656,966.313 546.082,964.449 545.329,962.747 544.400,961.215 543.302,959.860 542.039,958.691 540.618,957.716 539.044,956.944 537.323,956.382 535.459,956.039 533.458,955.923 z" />
<path fill="none" stroke="none" style="fill:#7c6468" stroke-width="8" d="M 480.041,1005.927 480.041,916.418 491.722,916.418 491.722,1005.927 480.041,1005.927 z" />
<path fill="none" stroke="none" style="fill:#7c6468" stroke-width="8" d="M 436.862,993.327 414.025,946.998 427.281,946.998 443.162,980.203 458.386,946.998 471.510,946.998 429.775,1036.113 416.781,1036.113 436.862,993.327 z" />
<path fill="none" stroke="none" style="fill:#7c6468" stroke-width="8" d="M 370.320,956.185 392.238,934.792 392.238,946.998 410.875,946.998 410.875,957.497 392.238,957.499 392.238,987.684 392.339,989.321 392.624,990.760 393.071,992.013 393.658,993.089 394.361,994.000 395.159,994.755 396.027,995.365 396.944,995.841 397.886,996.192 398.831,996.431 399.756,996.566 400.638,996.609 401.691,996.578 402.750,996.488 403.817,996.338 404.891,996.127 405.975,995.857 407.069,995.526 408.174,995.135 409.291,994.684 410.420,994.172 411.563,993.601 412.721,992.969 413.894,992.277 413.894,1003.171 412.833,1003.717 411.695,1004.237 410.498,1004.727 409.257,1005.183 407.988,1005.601 406.708,1005.976 405.434,1006.305 404.182,1006.583 402.968,1006.807 401.808,1006.971 400.720,1007.073 399.719,1007.108 396.668,1006.947 393.880,1006.476 391.355,1005.712 389.093,1004.673 387.097,1003.377 385.364,1001.842 383.898,1000.085 382.696,998.125 381.761,995.979 381.093,993.665 380.691,991.200 380.558,988.603 380.559,957.497 370.320,957.497 370.320,956.185 z" />
<path fill="none" stroke="none" style="fill:#7c6468" stroke-width="8" d="M 342.127,945.941 344.990,945.817 346.371,945.850 347.759,945.949 349.155,946.114 350.561,946.346 351.977,946.646 353.406,947.014 354.849,947.450 356.306,947.955 357.780,948.530 359.272,949.174 360.783,949.888 362.315,950.673 362.315,962.222 360.683,961.191 359.073,960.262 357.489,959.431 355.937,958.698 354.421,958.060 352.947,957.514 351.519,957.058 350.143,956.691 348.823,956.409 347.565,956.210 346.373,956.092 345.253,956.054 344.108,956.100 343.039,956.234 342.049,956.452 341.145,956.749 340.330,957.121 339.609,957.563 338.986,958.071 338.467,958.640 338.055,959.265 337.755,959.943 337.571,960.667 337.509,961.435 337.593,962.103 337.849,962.802 338.286,963.539 338.914,964.322 339.740,965.160 340.774,966.061 342.024,967.033 343.498,968.085 345.205,969.223 347.155,970.458 349.355,971.796 351.815,973.247 354.116,974.808 356.169,976.286 357.983,977.695 359.568,979.051 360.932,980.369 362.085,981.663 363.035,982.949 363.792,984.242 364.365,985.557 364.763,986.909 364.995,988.313 365.071,989.784 364.902,992.303 364.407,994.667 363.604,996.865 362.514,998.883 361.153,1000.711 359.542,1002.334 357.698,1003.742 355.641,1004.921 353.388,1005.859 350.959,1006.545 348.372,1006.965 345.646,1007.108 343.873,1007.077 342.152,1006.983 340.472,1006.821 338.822,1006.588 337.187,1006.280 335.557,1005.894 333.918,1005.426 332.259,1004.872 330.568,1004.229 328.831,1003.493 327.036,1002.660 325.172,1001.727 325.172,989.128 327.061,990.383 328.916,991.524 330.734,992.552 332.507,993.468 334.232,994.273 335.901,994.968 337.511,995.553 339.055,996.030 340.528,996.399 341.924,996.662 343.238,996.819 344.465,996.871 345.628,996.764 346.747,996.576 347.812,996.305 348.811,995.952 349.733,995.518 350.568,995.001 351.305,994.402 351.932,993.721 352.438,992.958 352.814,992.113 353.047,991.186 353.127,990.178 352.585,988.214 351.086,986.355 348.821,984.548 345.982,982.740 342.760,980.878 339.347,978.907 335.933,976.775 332.711,974.428 329.872,971.813 327.607,968.878 326.108,965.567 325.566,961.829 325.722,959.418 326.184,957.179 326.940,955.119 327.977,953.244 329.284,951.563 330.848,950.082 332.659,948.809 334.704,947.751 336.972,946.916 339.450,946.310 342.127,945.941 z" />
<path fill="none" stroke="none" style="fill:#7c6468" stroke-width="8" d="M 285.906,946.065 289.867,945.817 293.652,946.038 297.186,946.705 300.455,947.818 303.444,949.380 306.137,951.392 308.520,953.855 310.578,956.773 312.296,960.147 313.657,963.978 314.649,968.268 315.255,973.020 315.460,978.234 273.987,978.234 274.547,981.037 275.309,983.603 276.271,985.931 277.433,988.019 278.793,989.867 280.352,991.474 282.107,992.836 284.058,993.954 286.205,994.826 288.545,995.451 291.079,995.827 293.805,995.952 295.568,995.898 297.318,995.737 299.054,995.472 300.780,995.107 302.496,994.642 304.206,994.082 305.909,993.429 307.610,992.686 309.308,991.855 311.006,990.939 312.706,989.942 314.410,988.865 314.410,1000.152 312.649,1001.282 310.902,1002.308 309.152,1003.232 307.386,1004.055 305.589,1004.778 303.746,1005.402 301.844,1005.927 299.866,1006.355 297.799,1006.686 295.629,1006.921 293.339,1007.062 290.917,1007.108 286.494,1006.802 282.418,1005.915 278.695,1004.496 275.333,1002.592 272.339,1000.253 269.721,997.527 267.486,994.462 265.640,991.106 264.192,987.508 263.149,983.715 262.518,979.777 262.306,975.741 262.537,971.402 263.217,967.326 264.324,963.535 265.835,960.049 267.729,956.892 269.984,954.085 272.577,951.650 275.489,949.608 278.695,947.982 282.175,946.794 285.906,946.065 z" />
<path fill="none" stroke="none" style="fill:#7c6468" stroke-width="8" d="M 290.130,955.923 287.972,956.031 285.964,956.355 284.105,956.888 282.396,957.629 280.838,958.571 279.433,959.712 278.181,961.047 277.083,962.572 276.140,964.283 275.352,966.176 274.722,968.247 274.249,970.491 303.910,970.491 303.714,968.329 303.327,966.313 302.754,964.449 302.000,962.747 301.071,961.215 299.973,959.860 298.711,958.691 297.290,957.716 295.716,956.944 293.994,956.382 292.130,956.039 290.130,955.923 z" />
<path fill="none" stroke="none" style="fill:#7c6468" stroke-width="8" d="M 223.040,946.065 227.001,945.817 230.785,946.038 234.319,946.705 237.589,947.818 240.577,949.380 243.271,951.392 245.654,953.855 247.712,956.773 249.429,960.147 250.791,963.978 251.782,968.268 252.388,973.020 252.594,978.234 211.120,978.234 211.680,981.037 212.442,983.603 213.405,985.931 214.566,988.019 215.927,989.867 217.486,991.474 219.241,992.836 221.192,993.954 223.338,994.826 225.679,995.451 228.212,995.827 230.938,995.952 232.702,995.898 234.451,995.737 236.188,995.472 237.914,995.107 239.630,994.642 241.339,994.082 243.043,993.429 244.743,992.686 246.441,991.855 248.140,990.939 249.840,989.942 251.544,988.865 251.544,1000.152 249.783,1001.282 248.035,1002.308 246.286,1003.232 244.520,1004.055 242.723,1004.778 240.880,1005.402 238.977,1005.927 237.000,1006.355 234.933,1006.686 232.762,1006.921 230.473,1007.062 228.051,1007.108 223.628,1006.802 219.551,1005.915 215.829,1004.496 212.467,1002.592 209.473,1000.253 206.855,997.527 204.619,994.462 202.774,991.106 201.326,987.508 200.283,983.715 199.651,979.777 199.439,975.741 199.671,971.402 200.351,967.326 201.457,963.535 202.968,960.049 204.862,956.892 207.117,954.085 209.711,951.650 212.622,949.608 215.829,947.982 219.308,946.794 223.040,946.065 z" />
<path fill="none" stroke="none" style="fill:#7c6468" stroke-width="8" d="M 227.263,955.923 225.106,956.031 223.097,956.355 221.238,956.888 219.530,957.629 217.972,958.571 216.567,959.712 215.315,961.047 214.217,962.572 213.273,964.283 212.486,966.176 211.855,968.247 211.383,970.491 241.044,970.491 240.848,968.329 240.461,966.313 239.887,964.449 239.134,962.747 238.205,961.215 237.107,959.860 235.844,958.691 234.423,957.716 232.849,956.944 231.128,956.382 229.264,956.039 227.263,955.923 z" />
<path fill="none" stroke="none" style="fill:#7c6468" stroke-width="8" d="M 178.765,945.908 180.146,945.817 181.322,945.863 182.490,946.003 183.651,946.237 184.808,946.565 185.963,946.988 187.119,947.506 188.277,948.120 189.440,948.830 190.611,949.637 191.791,950.541 192.983,951.542 194.189,952.641 188.021,962.747 187.115,961.917 186.175,961.135 185.211,960.405 184.234,959.734 183.253,959.124 182.279,958.580 181.321,958.108 180.389,957.711 179.494,957.395 178.645,957.163 177.853,957.021 177.128,956.973 175.164,957.136 173.288,957.612 171.515,958.381 169.860,959.422 168.341,960.715 166.972,962.239 165.771,963.973 164.752,965.897 163.931,967.991 163.326,970.234 162.950,972.605 162.822,975.084 162.822,1005.927 151.141,1005.927 151.141,946.998 162.822,946.998 162.822,960.516 163.084,960.516 164.555,958.049 166.016,955.827 167.467,953.845 168.908,952.097 170.340,950.577 171.763,949.278 173.178,948.196 174.585,947.324 175.985,946.655 177.379,946.185 178.765,945.908 z" />
<path fill="none" stroke="none" style="fill:#7c6468" stroke-width="8" d="M 90.506,1005.927 90.506,916.418 138.279,916.418 138.279,927.967 103.368,927.967 103.368,952.773 138.279,952.773 138.279,964.322 103.368,964.322 103.368,1005.927 90.506,1005.927 z" />
</svg>
