<?xml version="1.0" encoding="utf-8"?>
<!DOCTYPE svg PUBLIC "-//W3C//DTD SVG 1.0//EN"
"http://www.w3.org/TR/2000/CR-SVG-20001102/DTD/svg-20001102.dtd">
<svg xml:space="default" width="1920" height="1080">
<path fill="none" stroke="#960013" stroke-width="2" d="M 849.229,416.265 906.740,440.881" />
<path fill="none" stroke="#960013" stroke-width="8" d="M 900.453,397.626 849.229,416.265 850.238,443.380" />
<path fill="none" stroke="#960013" stroke-width="8" d="M 907.373,468.564 850.238,443.380 816.086,428.325 725.257,461.375" />
<path fill="none" stroke="#960013" stroke-width="2" d="M 792.277,532.568 852.660,508.435 903.866,487.969" />
<path fill="none" stroke="#960013" stroke-width="2" d="M 727.859,500.536 792.277,532.568 795.005,585.320" />
<path fill="none" stroke="#960013" stroke-width="8" d="M 735.161,610.446 727.859,500.536 725.257,461.375 700.093,82.584 254.824,-46.050 -618.847,87.010 -348.785,861.787 -61.775,1293.427 672.708,912.438" />
<path fill="none" stroke="#960013" stroke-width="2" d="M -618.847,87.010 -362.755,320.048" />
<path fill="none" stroke="#960013" stroke-width="2" d="M -61.775,1293.427 -362.755,320.048 700.093,82.584" />
<path fill="none" stroke="#960013" stroke-width="8" d="M 760.641,882.014 790.377,902.229 790.650,902.082" />
<path fill="none" stroke="#960013" stroke-width="6" d="M 899.961,626.187 852.566,601.732 812.010,580.805 809.205,579.358 795.005,585.320 735.161,610.446 692.889,628.194 650.830,645.853 665.373,812.084 665.853,817.573 724.054,857.141" />
<path fill="none" stroke="#960013" stroke-width="6" d="M 941.477,679.827 940.923,647.323 929.169,641.258" />
<path fill="none" stroke="#960013" stroke-width="2" d="M 650.830,645.853 741.076,699.495 780.116,722.701" />
<path fill="none" stroke="#960013" stroke-width="2" d="M 790.377,902.229 780.116,722.701 851.600,689.193" />
<path fill="none" stroke="#960013" stroke-width="6" d="M 1120.394,593.634 1121.203,562.817 1080.222,544.753 1056.385,534.246" />
<path fill="none" stroke="#960013" stroke-width="2" d="M 851.045,561.791 900.383,586.325" />
<path fill="none" stroke="#960013" stroke-width="2" d="M 983.199,627.506 1021.463,609.570 1121.203,562.817" />
<path fill="none" stroke="#960013" stroke-width="2" d="M 939.865,605.957 983.199,627.506 983.480,669.282" />
<path fill="none" stroke="#960013" stroke-width="6" d="M 901.772,540.493 854.590,560.302 851.045,561.791 852.170,591.332 852.566,601.732" />
<path fill="none" stroke="#960013" stroke-width="7" d="M 1273.025,520.105 1274.835,490.802 1141.998,439.632 1081.530,465.020 1023.991,489.178" />
<path fill="none" stroke="#960013" stroke-width="2" d="M 1154.814,547.062 1274.835,490.802" />
<path fill="none" stroke="#960013" stroke-width="2" d="M 1065.871,508.992 1080.704,515.341 1154.814,547.062 1153.774,577.554" />
<path fill="none" stroke="#960013" stroke-width="6" d="M 1298.443,783.348 1328.075,798.072 1442.603,726.559 1460.177,562.198 1307.628,503.435 1273.025,520.105 1187.780,561.171 1186.500,591.599" />
<path fill="none" stroke="#960013" stroke-width="2" d="M 1187.780,561.171 1268.359,595.661 1341.750,627.073" />
<path fill="none" stroke="#960013" stroke-width="2" d="M 1328.075,798.072 1341.750,627.073 1460.177,562.198" />
<path fill="none" stroke="#960013" stroke-width="6" d="M 1124.377,878.251 1163.619,900.762 1295.930,818.144 1298.443,783.348 1306.944,665.646 1308.411,645.336 1298.065,640.776 1266.434,626.833 1186.500,591.599 1154.185,577.355 1153.774,577.554 1137.583,585.354 1120.394,593.634 1021.383,641.332 1016.112,643.872 1016.073,675.105 1016.060,686.093" />
<path fill="none" stroke="#960013" stroke-width="2" d="M 1016.112,643.872 1117.750,694.413 1170.731,720.758" />
<path fill="none" stroke="#960013" stroke-width="2" d="M 1163.619,900.762 1170.731,720.758 1181.310,714.963 1308.411,645.336" />
<path fill="none" stroke="#960013" stroke-width="6" d="M 821.127,916.487 821.467,923.365 967.943,1022.946 1122.980,926.138 1124.377,878.251 1127.999,754.136 1128.295,744.005 1106.005,732.503 1016.060,686.093 983.480,669.282 978.190,666.552 973.768,664.271 941.477,679.827 921.707,689.351" />
<path fill="none" stroke="#960013" stroke-width="2" d="M 812.511,741.956 943.565,819.854 965.756,833.044" />
<path fill="none" stroke="#960013" stroke-width="2" d="M 966.038,857.545 965.756,833.044 1015.912,805.569 1128.295,744.005" />
<path fill="none" stroke="#960013" stroke-width="5" d="M 903.578,698.084 857.088,720.481 816.946,739.819 812.511,741.956 812.738,746.552 818.223,857.657" />
<path fill="none" stroke="#7c6468" stroke-width="5" d="M 973.211,866.328 991.800,848.185 995.129,844.935 995.129,850.163 995.129,857.141 1006.872,857.141 1013.766,857.141 1013.766,861.238 1013.766,867.641 995.129,867.642 995.129,897.827 995.229,899.464 995.514,900.903 995.962,902.156 996.549,903.232 997.252,904.143 998.049,904.898 998.918,905.508 999.835,905.983 1000.777,906.335 1001.722,906.573 1002.647,906.709 1003.529,906.751 1004.582,906.721 1005.641,906.631 1006.707,906.481 1007.782,906.270 1008.866,906.000 1009.960,905.669 1011.065,905.278 1012.181,904.827 1013.311,904.315 1014.454,903.744 1015.612,903.112 1016.785,902.420 1016.785,913.314 1015.724,913.860 1014.586,914.380 1013.389,914.870 1012.147,915.326 1010.879,915.744 1009.599,916.119 1008.325,916.448 1007.073,916.726 1005.858,916.950 1004.699,917.114 1003.611,917.216 1002.610,917.251 999.559,917.090 996.770,916.618 994.245,915.854 991.984,914.816 989.987,913.520 988.255,911.985 986.788,910.228 985.587,908.268 984.652,906.122 983.984,903.808 983.582,901.343 983.448,898.745 983.450,867.641 973.211,867.641 973.211,866.328" />
<path fill="none" stroke="#7c6468" stroke-width="5" d="M 957.919,856.051 959.299,855.960 960.476,856.006 961.643,856.146 962.804,856.380 963.961,856.708 965.116,857.131 966.038,857.545 966.272,857.649 967.430,858.263 968.594,858.973 969.764,859.780 970.944,860.684 972.136,861.685 973.343,862.784 967.174,872.890 966.268,872.060 966.205,872.007 965.328,871.278 964.365,870.548 963.387,869.877 962.407,869.267 961.432,868.723 960.474,868.251 959.542,867.854 958.647,867.538 957.799,867.306 957.006,867.164 956.281,867.116 954.318,867.279 952.441,867.755 950.668,868.524 949.014,869.565 947.494,870.858 946.126,872.382 944.924,874.116 943.905,876.040 943.085,878.134 942.479,880.377 942.104,882.748 941.975,885.227 941.975,916.070 930.294,916.070 930.294,863.284 930.294,857.141 941.422,857.141 941.975,857.141 941.975,870.659 942.238,870.659 943.709,868.192 945.169,865.970 946.620,863.988 948.061,862.240 949.493,860.720 950.916,859.421 952.331,858.339 953.739,857.467 955.139,856.798 956.532,856.329 957.919,856.051" />
<path fill="none" stroke="#7c6468" stroke-width="5" d="M 880.315,856.228 884.621,855.960 889.136,856.218 893.409,856.974 897.411,858.201 901.114,859.873 904.489,861.962 907.507,864.441 910.139,867.285 912.358,870.465 913.439,872.590 914.133,873.955 915.436,877.727 916.240,881.757 916.514,886.015 916.247,890.544 915.464,894.800 914.188,898.758 912.445,902.396 910.259,905.692 907.655,908.622 904.656,911.163 901.289,913.294 897.578,914.991 893.546,916.231 889.219,916.992 884.621,917.251 880.204,916.982 876.028,916.195 872.120,914.917 868.507,913.178 865.217,911.004 862.277,908.425 859.714,905.468 858.169,903.103 857.556,902.163 855.829,898.536 854.562,894.617 853.782,890.434 853.516,886.015 853.792,881.867 854.599,877.910 855.903,874.176 857.672,870.698 859.873,867.508 862.474,864.638 865.440,862.121 867.812,860.589 868.741,859.989 870.370,859.214 872.342,858.275 876.211,857.010 880.315,856.228" />
<path fill="none" stroke="#7c6468" stroke-width="5" d="M 884.490,866.459 881.800,866.629 879.252,867.124 876.865,867.928 874.656,869.021 872.642,870.386 870.840,872.004 869.268,873.858 867.943,875.928 866.883,878.197 866.104,880.647 865.623,883.259 865.459,886.015 865.618,889.042 866.085,891.880 866.846,894.515 867.885,896.932 868.247,897.539 869.189,899.118 870.742,901.059 872.531,902.739 874.540,904.146 876.755,905.265 879.161,906.081 881.744,906.582 884.490,906.751 887.477,906.589 890.261,906.109 892.832,905.322 895.179,904.238 897.291,902.868 899.156,901.223 900.765,899.312 902.106,897.146 903.168,894.736 903.940,892.093 904.411,889.226 904.570,886.146 904.398,883.360 903.894,880.723 903.092,878.302 903.075,878.253 901.960,875.967 900.566,873.884 898.910,872.021 897.012,870.396 894.887,869.026 892.555,867.930 890.033,867.125 887.339,866.629 884.490,866.459" />
<path fill="none" stroke="#7c6468" stroke-width="8" d="M 790.650,946.256 790.650,902.082 790.650,857.141 810.862,857.141 816.036,857.359 818.223,857.657 820.795,858.009 825.130,859.085 829.037,860.582 832.507,862.496 835.536,864.819 838.116,867.547 840.241,870.674 841.905,874.195 841.991,874.474 843.102,878.104 843.824,882.396 844.067,887.065 843.811,891.381 843.062,895.453 841.846,899.256 840.188,902.765 838.114,905.956 835.651,908.802 832.823,911.279 829.659,913.362 826.182,915.026 822.420,916.245 821.127,916.487 818.398,916.995 814.143,917.251 813.196,917.234 812.256,917.184 811.319,917.099 810.380,916.979 809.436,916.822 808.483,916.628 807.516,916.395 806.531,916.123 805.524,915.811 804.491,915.459 803.428,915.064 802.331,914.626 802.331,946.256 790.650,946.256" />
<path fill="none" stroke="#7c6468" stroke-width="6" d="M 812.962,867.641 802.331,867.641 802.331,895.801 802.331,904.127 803.222,904.537 804.123,904.913 805.031,905.256 805.947,905.565 806.868,905.840 807.794,906.079 808.722,906.282 809.651,906.450 810.581,906.581 811.509,906.675 812.434,906.732 813.355,906.751 816.013,906.580 818.528,906.076 820.578,905.366 820.883,905.261 823.063,904.151 825.048,902.766 826.824,901.124 828.373,899.245 829.678,897.146 830.723,894.847 831.490,892.366 831.962,889.722 832.123,886.933 831.989,883.990 831.588,881.266 831.308,880.219 830.919,878.770 829.984,876.507 828.783,874.485 827.316,872.710 825.584,871.189 823.587,869.930 821.326,868.939 818.801,868.222 818.744,868.213 816.013,867.787 812.962,867.641" />
<path fill="none" stroke="#7c6468" stroke-width="8" d="M 742.352,886.146 736.527,879.334 717.547,857.141 724.054,857.141 731.914,857.141 732.246,857.141 732.713,857.682 743.895,870.629 746.808,874.002 749.702,877.353 751.176,875.579 766.501,857.141 781.463,857.141 760.641,882.014 757.183,886.146 783.169,916.070 768.207,916.070 749.702,894.939 732.246,916.070 717.547,916.070 742.352,886.146" />
<path fill="none" stroke="#7c6468" stroke-width="6" d="M 683.662,856.208 687.623,855.960 691.407,856.181 694.941,856.848 698.211,857.961 701.199,859.523 703.893,861.535 706.276,863.998 708.334,866.916 710.051,870.290 711.413,874.121 712.404,878.411 713.010,883.163 713.216,888.377 671.742,888.377 672.303,891.180 673.064,893.745 674.027,896.073 675.189,898.162 676.549,900.010 678.108,901.616 679.863,902.979 681.814,904.097 683.960,904.969 686.038,905.524 686.301,905.594 688.834,905.970 691.560,906.095 693.324,906.041 695.073,905.880 696.810,905.615 698.536,905.249 700.252,904.785 701.961,904.225 703.665,903.572 705.365,902.829 707.063,901.998 708.762,901.082 710.462,900.085 712.166,899.008 712.166,910.295 710.405,911.424 708.657,912.451 706.908,913.375 705.142,914.198 703.345,914.921 701.502,915.545 699.599,916.070 697.622,916.498 695.555,916.829 693.384,917.064 691.095,917.204 688.673,917.251 684.250,916.945 680.173,916.058 676.451,914.638 673.089,912.735 672.708,912.438 670.095,910.396 667.477,907.670 665.241,904.605 663.396,901.249 661.948,897.650 660.905,893.858 660.273,889.919 660.061,885.884 660.293,881.545 660.973,877.469 662.079,873.678 663.590,870.192 665.484,867.035 667.739,864.228 670.333,861.793 673.244,859.751 676.451,858.125 679.930,856.937 683.662,856.208" />
<path fill="none" stroke="#7c6468" stroke-width="6" d="M 687.885,866.066 685.728,866.174 683.719,866.498 681.860,867.031 680.152,867.772 678.594,868.714 677.189,869.855 675.937,871.190 674.839,872.715 673.895,874.426 673.108,876.319 672.478,878.390 672.005,880.634 701.666,880.634 701.470,878.472 701.083,876.456 700.509,874.592 699.756,872.890 698.827,871.358 697.729,870.003 696.466,868.834 695.045,867.859 693.471,867.087 691.750,866.525 689.886,866.182 687.885,866.066" />
<path fill="none" stroke="#7c6468" stroke-width="6" d="M 584.309,856.208 588.271,855.960 592.055,856.181 595.589,856.848 598.858,857.961 601.847,859.523 604.541,861.535 606.924,863.998 608.981,866.916 610.699,870.290 612.061,874.121 613.052,878.411 613.658,883.163 613.863,888.377 572.390,888.377 572.950,891.180 573.712,893.745 574.674,896.073 575.836,898.162 577.197,900.010 578.755,901.616 580.510,902.979 582.462,904.097 584.608,904.969 586.948,905.594 589.482,905.970 592.208,906.095 593.972,906.041 595.721,905.880 597.458,905.615 599.183,905.249 600.900,904.785 602.609,904.225 604.313,903.572 606.013,902.829 607.711,901.998 609.409,901.082 611.109,900.085 612.813,899.008 612.813,910.295 611.053,911.424 609.305,912.451 607.555,913.375 605.789,914.198 603.992,914.921 602.150,915.545 600.247,916.070 598.269,916.498 596.203,916.829 594.032,917.064 591.743,917.204 589.320,917.251 584.898,916.945 580.821,916.058 577.098,914.638 573.736,912.735 570.743,910.396 568.124,907.670 565.889,904.605 564.044,901.249 562.596,897.650 561.552,893.858 560.921,889.919 560.709,885.884 560.941,881.545 561.621,877.469 562.727,873.678 564.238,870.192 566.132,867.035 568.387,864.228 570.981,861.793 573.892,859.751 577.098,858.125 580.578,856.937 584.309,856.208" />
<path fill="none" stroke="#7c6468" stroke-width="6" d="M 588.533,866.066 586.376,866.174 584.367,866.498 582.508,867.031 580.799,867.772 579.242,868.714 577.837,869.855 576.584,871.190 575.486,872.715 574.543,874.426 573.756,876.319 573.125,878.390 572.652,880.634 602.314,880.634 602.118,878.472 601.730,876.456 601.157,874.592 600.403,872.890 599.475,871.358 598.376,870.003 597.114,868.834 595.693,867.859 594.119,867.087 592.397,866.525 590.534,866.182 588.533,866.066" />
<path fill="none" stroke="#7c6468" stroke-width="6" d="M 535.116,916.070 535.116,826.561 546.797,826.561 546.797,916.070 535.116,916.070" />
<path fill="none" stroke="#7c6468" stroke-width="6" d="M 491.937,903.470 469.100,857.141 482.356,857.141 498.237,890.346 513.461,857.141 526.585,857.141 484.850,946.256 471.856,946.256 491.937,903.470" />
<path fill="none" stroke="#7c6468" stroke-width="6" d="M 425.396,866.328 447.314,844.935 447.314,857.141 465.950,857.141 465.950,867.641 447.313,867.642 447.314,897.827 447.414,899.464 447.699,900.903 448.146,902.156 448.733,903.232 449.436,904.143 450.234,904.898 451.102,905.508 452.019,905.983 452.961,906.335 453.906,906.573 454.831,906.709 455.713,906.751 456.766,906.721 457.825,906.631 458.892,906.481 459.967,906.270 461.050,906.000 462.144,905.669 463.249,905.278 464.366,904.827 465.495,904.315 466.638,903.744 467.796,903.112 468.969,902.420 468.969,913.314 467.908,913.860 466.771,914.380 465.573,914.870 464.332,915.326 463.063,915.744 461.783,916.119 460.509,916.448 459.257,916.726 458.043,916.950 456.884,917.114 455.795,917.216 454.795,917.251 451.743,917.090 448.955,916.618 446.430,915.854 444.169,914.816 442.172,913.520 440.440,911.985 438.973,910.228 437.772,908.268 436.837,906.122 436.168,903.808 435.767,901.343 435.633,898.745 435.634,867.641 425.396,867.641 425.396,866.328" />
<path fill="none" stroke="#7c6468" stroke-width="6" d="M 397.202,856.084 400.066,855.960 401.447,855.993 402.834,856.092 404.230,856.257 405.636,856.490 407.053,856.790 408.482,857.157 409.924,857.594 411.382,858.099 412.856,858.673 414.348,859.317 415.858,860.031 417.390,860.816 417.390,872.365 415.758,871.334 414.148,870.405 412.565,869.574 411.012,868.841 409.497,868.203 408.022,867.657 406.594,867.201 405.218,866.834 403.898,866.552 402.640,866.353 401.448,866.235 400.328,866.197 399.183,866.243 398.114,866.377 397.125,866.595 396.221,866.892 395.406,867.264 394.685,867.706 394.062,868.214 393.542,868.783 393.130,869.408 392.830,870.086 392.647,870.810 392.585,871.578 392.668,872.246 392.924,872.945 393.362,873.682 393.989,874.465 394.816,875.303 395.849,876.204 397.099,877.176 398.573,878.228 400.281,879.366 402.230,880.601 404.431,881.939 406.890,883.390 409.191,884.951 411.244,886.429 413.059,887.838 414.643,889.194 416.008,890.511 417.160,891.806 418.110,893.092 418.868,894.385 419.441,895.700 419.839,897.052 420.071,898.456 420.146,899.927 419.977,902.446 419.482,904.810 418.680,907.008 417.589,909.026 416.229,910.854 414.617,912.477 412.773,913.884 410.716,915.064 408.463,916.002 406.034,916.688 403.447,917.108 400.722,917.251 398.948,917.220 397.227,917.126 395.548,916.964 393.897,916.731 392.263,916.423 390.632,916.037 388.994,915.569 387.335,915.015 385.643,914.372 383.906,913.636 382.112,912.803 380.248,911.870 380.248,899.270 382.136,900.526 383.992,901.667 385.809,902.695 387.583,903.611 389.307,904.416 390.977,905.111 392.586,905.696 394.130,906.173 395.603,906.542 396.999,906.805 398.314,906.962 399.541,907.014 400.704,906.907 401.823,906.719 402.887,906.448 403.886,906.095 404.809,905.660 405.643,905.144 406.380,904.545 407.007,903.864 407.514,903.101 407.889,902.256 408.122,901.329 408.203,900.320 407.660,898.357 406.161,896.498 403.896,894.691 401.057,892.883 397.835,891.021 394.422,889.050 391.009,886.918 387.787,884.571 384.948,881.956 382.683,879.021 381.184,875.710 380.641,871.972 380.798,869.561 381.260,867.322 382.015,865.262 383.052,863.387 384.359,861.706 385.924,860.225 387.735,858.952 389.780,857.894 392.047,857.059 394.525,856.453 397.202,856.084" />
<path fill="none" stroke="#7c6468" stroke-width="6" d="M 340.982,856.208 344.943,855.960 348.727,856.181 352.261,856.848 355.530,857.961 358.519,859.523 361.213,861.535 363.596,863.998 365.654,866.916 367.371,870.290 368.733,874.121 369.724,878.411 370.330,883.163 370.535,888.377 329.062,888.377 329.622,891.180 330.384,893.745 331.347,896.073 332.508,898.162 333.869,900.010 335.428,901.616 337.183,902.979 339.134,904.097 341.280,904.969 343.621,905.594 346.154,905.970 348.880,906.095 350.644,906.041 352.393,905.880 354.130,905.615 355.855,905.249 357.572,904.785 359.281,904.225 360.985,903.572 362.685,902.829 364.383,901.998 366.082,901.082 367.782,900.085 369.485,899.008 369.485,910.295 367.725,911.424 365.977,912.451 364.227,913.375 362.461,914.198 360.664,914.921 358.822,915.545 356.919,916.070 354.942,916.498 352.875,916.829 350.704,917.064 348.415,917.204 345.993,917.251 341.570,916.945 337.493,916.058 333.771,914.638 330.409,912.735 327.415,910.396 324.797,907.670 322.561,904.605 320.716,901.249 319.268,897.650 318.225,893.858 317.593,889.919 317.381,885.884 317.613,881.545 318.293,877.469 319.399,873.678 320.910,870.192 322.804,867.035 325.059,864.228 327.653,861.793 330.564,859.751 333.771,858.125 337.250,856.937 340.982,856.208" />
<path fill="none" stroke="#7c6468" stroke-width="6" d="M 345.205,866.066 343.048,866.174 341.039,866.498 339.180,867.031 337.472,867.772 335.914,868.714 334.509,869.855 333.257,871.190 332.159,872.715 331.215,874.426 330.428,876.319 329.797,878.390 329.325,880.634 358.986,880.634 358.790,878.472 358.403,876.456 357.829,874.592 357.076,872.890 356.147,871.358 355.049,870.003 353.786,868.834 352.365,867.859 350.791,867.087 349.070,866.525 347.206,866.182 345.205,866.066" />
<path fill="none" stroke="#7c6468" stroke-width="6" d="M 278.115,856.208 282.076,855.960 285.861,856.181 289.395,856.848 292.664,857.961 295.653,859.523 298.347,861.535 300.730,863.998 302.787,866.916 304.505,870.290 305.867,874.121 306.858,878.411 307.464,883.163 307.669,888.377 266.196,888.377 266.756,891.180 267.518,893.745 268.480,896.073 269.642,898.162 271.003,900.010 272.561,901.616 274.317,902.979 276.268,904.097 278.414,904.969 280.754,905.594 283.288,905.970 286.014,906.095 287.778,906.041 289.527,905.880 291.264,905.615 292.989,905.249 294.706,904.785 296.415,904.225 298.119,903.572 299.819,902.829 301.517,901.998 303.215,901.082 304.915,900.085 306.619,899.008 306.619,910.295 304.859,911.424 303.111,912.451 301.361,913.375 299.595,914.198 297.798,914.921 295.956,915.545 294.053,916.070 292.075,916.498 290.009,916.829 287.838,917.064 285.549,917.204 283.126,917.251 278.704,916.945 274.627,916.058 270.904,914.638 267.542,912.735 264.549,910.396 261.930,907.670 259.695,904.605 257.850,901.249 256.402,897.650 255.358,893.858 254.727,889.919 254.515,885.884 254.747,881.545 255.426,877.469 256.533,873.678 258.044,870.192 259.938,867.035 262.193,864.228 264.787,861.793 267.698,859.751 270.904,858.125 274.384,856.937 278.115,856.208" />
<path fill="none" stroke="#7c6468" stroke-width="6" d="M 282.339,866.066 280.182,866.174 278.173,866.498 276.314,867.031 274.605,867.772 273.048,868.714 271.643,869.855 270.390,871.190 269.292,872.715 268.349,874.426 267.562,876.319 266.931,878.390 266.458,880.634 296.120,880.634 295.924,878.472 295.536,876.456 294.963,874.592 294.209,872.890 293.281,871.358 292.182,870.003 290.920,868.834 289.499,867.859 287.925,867.087 286.203,866.525 284.340,866.182 282.339,866.066" />
<path fill="none" stroke="#7c6468" stroke-width="6" d="M 233.841,856.051 235.222,855.960 236.398,856.006 237.566,856.146 238.727,856.380 239.884,856.708 241.039,857.131 242.195,857.649 243.353,858.263 244.516,858.973 245.687,859.780 246.867,860.684 248.059,861.685 249.265,862.784 243.097,872.890 242.191,872.060 241.251,871.278 240.287,870.548 239.310,869.877 238.329,869.267 237.355,868.723 236.397,868.251 235.465,867.854 234.570,867.538 233.721,867.306 232.929,867.164 232.203,867.116 230.240,867.279 228.364,867.755 226.591,868.524 224.936,869.565 223.417,870.858 222.048,872.382 220.847,874.116 219.828,876.040 219.007,878.134 218.402,880.377 218.026,882.748 217.898,885.227 217.898,916.070 206.217,916.070 206.217,857.141 217.898,857.141 217.898,870.659 218.160,870.659 219.631,868.192 221.092,865.970 222.543,863.988 223.984,862.240 225.416,860.720 226.839,859.421 228.254,858.339 229.661,857.467 231.061,856.798 232.454,856.329 233.841,856.051" />
<path fill="none" stroke="#7c6468" stroke-width="6" d="M 145.582,916.070 145.582,826.561 193.355,826.561 193.355,838.110 158.444,838.110 158.444,862.916 193.355,862.916 193.355,874.465 158.444,874.465 158.444,916.070 145.582,916.070" />
<path fill="none" stroke="#987c81" stroke-width="2" d="M 894.222,115.764 893.584,115.507 893.416,115.440 893.290,115.389 892.941,115.249 892.085,114.904 891.916,114.837 891.734,114.763 891.748,115.425" />
<path fill="none" stroke="#987c81" stroke-width="2" d="M 897.568,117.878 899.825,120.976 899.788,123.088" />
<path fill="none" stroke="#987c81" stroke-width="2" d="M 896.457,132.825 895.827,133.837 894.836,135.430 895.197,135.264 895.475,134.271 895.837,132.983 895.841,132.982 896.355,132.851 896.457,132.825" />
<path fill="none" stroke="#987c81" stroke-width="2" d="M 898.489,127.000 896.539,131.203 896.478,132.652 896.472,132.799" />
<path fill="none" stroke="#987c81" stroke-width="2" d="M 896.461,143.930 898.113,145.463 898.116,145.539 898.184,147.022 898.674,146.846 899.620,146.505 899.814,146.436 899.488,145.953 899.113,145.397 899.009,144.062 899.037,144.057 899.348,143.995 900.437,143.778 900.714,143.723 901.841,143.047 904.141,143.132 904.398,143.735 904.428,143.804 904.711,144.470 904.926,144.974 905.445,146.192 905.589,146.528 906.388,148.403 905.930,148.499 904.961,148.701 903.921,148.919 901.745,148.891 901.185,148.884 901.144,148.893 900.966,148.929 900.232,149.080 898.871,149.359 898.781,149.377 897.052,148.773 896.739,146.675 895.487,147.324 895.282,147.160 894.370,144.620 895.000,142.362" />
<path fill="none" stroke="#987c81" stroke-width="2" d="M 897.265,148.509 897.122,144.878" />
<path fill="none" stroke="#987c81" stroke-width="2" d="M 902.692,164.192 900.202,160.231 901.659,160.744 905.603,161.815 906.051,161.937 906.016,162.047 905.058,165.040 902.692,164.192" />
<path fill="none" stroke="#987c81" stroke-width="2" d="M 923.896,178.685 927.897,186.929 927.670,189.775 931.021,191.313 933.381,189.013 933.736,183.416 933.374,177.998 928.411,176.885 923.771,173.167 922.431,173.044 923.896,178.685" />
<path fill="none" stroke="#987c81" stroke-width="2" d="M 921.325,174.952 921.328,174.961 922.281,177.745 921.565,174.318 921.513,174.066 921.415,173.597 921.379,173.527 920.628,172.064" />
<path fill="none" stroke="#987c81" stroke-width="2" d="M 901.269,209.878 901.671,201.443 907.888,199.205 912.814,200.328 915.583,210.556 908.639,215.584 901.269,209.878" />
<path fill="none" stroke="#987c81" stroke-width="2" d="M 914.591,234.755 921.268,236.757 921.724,241.012 922.739,251.992 922.383,264.071 924.142,268.694 921.615,275.784 917.158,292.243 916.310,298.050 918.285,323.754 919.864,329.898 918.348,335.747 915.455,335.734 912.726,334.301 910.829,326.867 910.632,321.014 911.413,296.276 910.074,289.047 908.833,270.135 905.916,266.490 902.856,259.621 905.446,257.744 905.601,246.022 914.591,234.755" />
<path fill="none" stroke="#987c81" stroke-width="2" d="M 764.564,354.599 764.554,354.605 763.369,355.302 762.236,355.968" />
<path fill="none" stroke="#987c81" stroke-width="2" d="M 774.140,364.331 774.235,363.879 773.203,359.522 774.843,355.832 772.357,357.815 772.392,356.825" />
<path fill="none" stroke="#987c81" stroke-width="2" d="M 774.761,356.298 775.166,357.396 774.305,359.970 773.404,359.142 774.761,356.298" />
<path fill="none" stroke="#987c81" stroke-width="2" d="M 772.146,341.191 771.345,343.815 771.241,344.154 770.926,344.575" />
<path fill="none" stroke="#987c81" stroke-width="2" d="M 779.724,348.965 777.392,349.557" />
<path fill="none" stroke="#987c81" stroke-width="2" d="M 965.128,485.515 965.241,476.222 964.774,470.568" />
<path fill="none" stroke="#987c81" stroke-width="2" d="M 1036.212,562.859 1036.677,563.392 1036.815,563.551 1036.902,563.651 1037.482,564.315 1037.421,565.964 1038.555,565.656" />
<path fill="none" stroke="#987c81" stroke-width="2" d="M 1044.677,509.045 1048.593,511.104 1046.276,516.152 1044.425,512.753 1043.561,511.317 1044.338,509.703 1044.677,509.045" />
<path fill="none" stroke="#987c81" stroke-width="2" d="M 1033.276,535.861 1034.607,542.283 1035.112,544.722 1035.240,550.647 1035.310,550.805 1037.504,555.807" />
<path fill="none" stroke="#987c81" stroke-width="2" d="M 1026.787,509.675 1027.280,505.332" />
<path fill="none" stroke="#987c81" stroke-width="2" d="M 1045.565,573.957 1044.650,573.366 1046.499,571.236 1045.807,572.786 1045.565,573.957" />
<path fill="none" stroke="#987c81" stroke-width="2" d="M 919.526,398.205 929.117,401.678 929.189,401.704" />
<path fill="none" stroke="#987c81" stroke-width="2" d="M 1027.485,505.214 1042.268,508.957 1044.344,509.435" />
<path fill="none" stroke="#987c81" stroke-width="2" d="M 970.870,481.253 970.549,485.125 974.488,490.364 960.372,492.950 962.302,489.774" />
<path fill="none" stroke="#987c81" stroke-width="2" d="M 925.321,127.025 924.536,126.393 923.378,125.460 923.344,125.433 922.892,125.069 921.563,123.999 920.829,123.408 919.079,122.324 914.009,121.297 913.003,121.555 912.739,121.622 912.691,121.635" />
<path fill="none" stroke="#987c81" stroke-width="2" d="M 914.036,121.310 913.607,121.736" />
<path fill="none" stroke="#987c81" stroke-width="2" d="M 905.090,123.348 904.370,121.438 906.410,120.508 909.458,120.055 909.807,120.003 912.846,119.551 913.174,119.627 913.600,119.726 914.002,119.820 914.002,119.820 917.427,120.616 920.972,120.205 925.055,123.670 927.665,123.257 928.970,126.703 929.115,127.085 929.312,127.604 928.607,128.093 928.339,128.279 927.554,128.824 927.433,128.908 925.323,130.372 924.771,130.755 920.373,132.684 918.092,132.366 910.473,133.207 906.281,131.468 906.268,131.445 904.855,128.920 904.304,125.649 904.572,124.863 904.584,124.828 905.090,123.348" />
<path fill="none" stroke="#987c81" stroke-width="2" d="M 909.485,129.774 908.779,129.421 905.627,127.842 905.134,125.290 905.108,124.837 905.101,124.715 905.019,123.338 902.868,120.566 903.232,120.397 909.598,119.887 909.800,119.871 912.846,119.627 913.151,119.729 913.555,119.864 913.929,119.990 913.928,119.989 919.173,121.746" />
<path fill="none" stroke="#987c81" stroke-width="2" d="M 920.233,121.556 925.927,126.025 927.029,125.613 929.922,125.595 929.999,125.595 932.569,125.579 934.387,127.095" />
<path fill="none" stroke="#987c81" stroke-width="2" d="M 905.448,140.045 909.418,137.827 910.163,139.172 910.163,139.172 910.227,139.286 910.661,140.070 911.400,141.403 912.566,143.506 912.763,143.862 912.662,143.943 911.084,145.200 908.696,147.103 908.269,146.173 907.577,144.666 906.815,143.009 906.612,142.567 906.580,142.517 906.372,142.186 906.063,141.693 905.448,140.045" />
<path fill="none" stroke="#987c81" stroke-width="2" d="M 900.843,145.892 899.452,145.803 898.893,145.767 899.007,144.062 899.037,144.057 899.354,144.006 900.321,143.852 900.516,143.821 901.933,142.977 904.266,143.274" />
<path fill="none" stroke="#987c81" stroke-width="2" d="M 909.581,158.480 911.065,157.949 911.402,157.828 911.532,157.856 912.731,158.113 909.909,160.246 909.581,158.480" />
<path fill="none" stroke="#987c81" stroke-width="2" d="M 951.964,130.189 951.027,123.469 960.041,110.705 963.168,118.205 964.954,117.335 966.692,115.215 968.115,115.735 976.544,118.179 976.121,119.389" />
<path fill="none" stroke="#987c81" stroke-width="2" d="M 958.192,134.289 952.444,123.558 960.126,106.700" />
<path fill="none" stroke="#987c81" stroke-width="2" d="M 949.728,178.649 947.478,175.784 943.849,178.583 943.824,182.829 948.980,181.929 949.728,178.649" />
<path fill="none" stroke="#987c81" stroke-width="2" d="M 950.605,212.734 953.685,217.275 949.593,221.818 941.797,227.765 935.690,234.417 932.340,228.404 936.493,217.587 941.328,210.943 950.605,212.734" />
<path fill="none" stroke="#987c81" stroke-width="2" d="M 950.791,212.414 950.795,216.097 949.309,218.390 940.221,223.818 944.756,212.914 950.791,212.414" />
<path fill="none" stroke="#987c81" stroke-width="2" d="M 977.334,253.509 981.209,246.498" />
<path fill="none" stroke="#987c81" stroke-width="2" d="M 990.398,187.320 985.106,191.653 976.792,197.914 972.332,200.129 968.593,202.033 966.400,203.668 956.491,205.264" />
<path fill="none" stroke="#987c81" stroke-width="2" d="M 923.392,228.260 925.961,227.923 931.032,228.877 925.634,232.952 924.643,233.254 923.030,252.178 923.051,263.007 926.991,267.208 924.156,277.795 919.299,289.609 916.858,298.458 918.753,322.646 920.159,329.774" />
<path fill="none" stroke="#987c81" stroke-width="2" d="M 1017.783,209.149 1019.120,211.870 1019.759,213.169 1020.214,213.574 1023.760,216.732 1023.304,216.452 1021.702,216.192 1018.412,211.419 1018.370,211.268 1018.339,211.155 1017.783,209.149" />
<path fill="none" stroke="#987c81" stroke-width="2" d="M 1022.841,249.587 1023.923,249.739 1029.990,243.886 1031.194,244.021" />
<path fill="none" stroke="#987c81" stroke-width="2" d="M 944.983,279.214 946.301,279.228 953.696,274.447 964.870,273.410" />
<path fill="none" stroke="#987c81" stroke-width="2" d="M 974.799,241.921 973.499,237.944 979.815,241.026 985.010,239.554" />
<path fill="none" stroke="#987c81" stroke-width="2" d="M 977.617,222.506 977.578,222.480 977.571,222.446 977.614,222.474" />
<path fill="none" stroke="#987c81" stroke-width="2" d="M 978.122,377.433 977.753,385.492 973.519,384.584 973.350,384.548 973.328,384.543 971.642,384.181 971.160,384.105 967.239,383.485 966.215,384.804 966.173,384.857" />
<path fill="none" stroke="#987c81" stroke-width="2" d="M 978.650,376.855 978.277,385.828 973.377,384.966 973.242,384.942 973.225,384.939 971.191,384.582" />
<path fill="none" stroke="#987c81" stroke-width="2" d="M 904.742,666.030 907.150,664.431 910.048,666.363 909.133,672.273 903.179,670.018 897.621,667.691 895.357,671.344 893.399,669.384 894.904,665.670 895.979,663.064 896.344,663.501 896.786,663.873 904.742,666.030" />
<path fill="none" stroke="#987c81" stroke-width="2" d="M 885.757,668.448 883.977,669.712 883.540,670.023" />
<path fill="none" stroke="#987c81" stroke-width="2" d="M 885.676,668.491 884.124,669.666 883.743,669.954" />
<path fill="none" stroke="#987c81" stroke-width="2" d="M 909.421,137.804 910.277,139.090 910.278,139.090 910.340,139.185 910.839,139.934 911.686,141.207 912.246,142.048 913.735,144.284 914.114,144.853 913.523,146.215 912.958,147.518 912.261,149.125 912.253,149.143 911.949,149.844 910.180,153.440" />
<path fill="none" stroke="#987c81" stroke-width="2" d="M 902.249,161.179 905.385,161.826" />
<path fill="none" stroke="#987c81" stroke-width="2" d="M 966.573,138.065 969.172,135.547" />
<path fill="none" stroke="#987c81" stroke-width="2" d="M 971.716,128.718 973.761,122.269 974.944,119.970 970.504,118.605 969.004,118.477 968.956,118.527 968.258,119.247 964.555,119.709" />
<path fill="none" stroke="#987c81" stroke-width="2" d="M 968.292,125.400 969.955,126.435 971.639,126.570 971.667,126.608 973.187,128.632 972.185,130.853 970.325,132.422 970.121,132.594 969.731,132.775 969.060,133.086 968.395,133.394 966.051,135.030 962.898,137.776 962.516,138.109" />
<path fill="none" stroke="#987c81" stroke-width="2" d="M 966.741,125.798 969.751,126.585 971.628,126.514 971.676,126.578 973.254,128.678" />
<path fill="none" stroke="#987c81" stroke-width="2" d="M 964.413,134.001 964.202,133.221 963.811,131.140" />
<path fill="none" stroke="#987c81" stroke-width="2" d="M 974.309,124.000 972.638,123.516 971.356,123.145 971.269,123.139 966.944,124.511 966.203,123.962 968.541,120.713 969.523,119.838 972.596,121.017 973.370,121.183 974.273,121.377 976.107,123.192" />
<path fill="none" stroke="#987c81" stroke-width="2" d="M 959.436,140.820 959.575,140.760 960.108,140.528 961.274,141.125 961.343,141.161 962.321,141.662 962.442,140.844" />
<path fill="none" stroke="#987c81" stroke-width="2" d="M 917.226,682.267 918.629,680.776 918.295,685.839 915.043,687.344 912.792,687.186 910.824,685.685 913.770,684.375 913.405,679.662 917.226,682.267" />
<path fill="none" stroke="#987c81" stroke-width="2" d="M 918.567,680.843 921.910,677.277 921.953,677.232" />
<path fill="none" stroke="#987c81" stroke-width="2" d="M 872.592,681.385 872.791,681.352" />
<path fill="none" stroke="#987c81" stroke-width="2" d="M 887.582,693.062 885.017,691.357 885.385,690.676 883.211,689.864 876.694,686.210 873.162,687.099 872.326,687.309 871.181,687.305 868.972,688.519 864.751,689.885 866.429,691.932 866.478,692.315" />
<path fill="none" stroke="#987c81" stroke-width="2" d="M 848.995,686.362 848.924,687.078 849.234,687.330 849.714,687.403" />
<path fill="none" stroke="#987c81" stroke-width="2" d="M 894.977,675.508 894.989,675.669" />
<path fill="none" stroke="#987c81" stroke-width="2" d="M 985.249,244.960 987.443,246.069 987.490,246.100 990.517,248.104" />
<path fill="none" stroke="#987c81" stroke-width="2" d="M 967.625,116.822 968.996,116.513 976.066,118.560" />
<path fill="none" stroke="#987c81" stroke-width="2" d="M 969.603,129.508 968.429,129.396 967.099,128.883" />
<path fill="none" stroke="#987c81" stroke-width="2" d="M 863.428,678.620 864.462,680.857" />
<path fill="none" stroke="#987c81" stroke-width="2" d="M 872.511,681.555 865.953,682.670" />
<path fill="none" stroke="#987c81" stroke-width="2" d="M 877.239,697.836 875.607,697.860" />
<path fill="none" stroke="#987c81" stroke-width="2" d="M 862.174,689.563 863.276,688.687 865.501,686.920" />
<path fill="none" stroke="#987c81" stroke-width="2" d="M 911.615,323.610 911.949,296.271" />
<path fill="none" stroke="#987c81" stroke-width="2" d="M 923.689,172.179 923.605,172.009" />
<path fill="none" stroke="#987c81" stroke-width="2" d="M 895.118,115.694 893.337,115.023 892.908,114.861 892.038,114.533 891.869,114.469 891.473,114.320" />
<path fill="none" stroke="#987c81" stroke-width="8" d="M 890.598,112.019 891.473,114.320 891.739,115.422" />
<path fill="none" stroke="#987c81" stroke-width="2" d="M 892.137,117.075 892.182,116.881 892.233,116.656 892.324,116.262" />
<path fill="none" stroke="#987c81" stroke-width="5" d="M 893.951,116.659 896.224,117.768 896.466,117.886 896.907,118.367 898.721,120.348 899.000,120.652 899.358,121.042 899.667,121.380" />
<path fill="none" stroke="#987c81" stroke-width="5" d="M 897.604,130.836 896.478,132.652 896.355,132.851 895.829,133.700 895.475,134.271 894.930,135.152 894.909,135.185 894.401,136.005 893.443,137.551 893.415,139.081 895.000,142.362 895.309,143.001 897.950,145.389 898.116,145.539 898.606,145.981 898.710,146.075" />
<path fill="none" stroke="#987c81" stroke-width="5" d="M 895.461,150.006 897.042,153.627 897.188,153.703 897.411,153.821 897.538,153.888 897.975,154.118 897.986,154.124 898.481,154.384 900.085,155.229 900.110,155.242 900.385,155.289 901.085,155.408 901.113,155.413 901.125,155.415 901.195,155.427 903.572,155.832" />
<path fill="none" stroke="#987c81" stroke-width="5" d="M 897.676,154.948 897.627,155.169 897.418,156.103 899.342,159.809" />
<path fill="none" stroke="#987c81" stroke-width="5" d="M 897.771,154.523 897.676,154.948" />
<path fill="none" stroke="#987c81" stroke-width="2" d="M 897.771,154.523 897.411,153.821" />
<path fill="none" stroke="#987c81" stroke-width="8" d="M 978.897,124.451 979.722,122.845 982.834,112.989 984.960,104.146 984.842,96.074 981.715,77.583 975.015,67.251 970.214,63.042 957.000,55.899 938.266,53.090 923.880,56.028 910.259,62.684 901.497,68.650 898.006,73.492 891.908,82.116 888.867,101.950 889.424,108.932 890.598,112.019" />
<path fill="none" stroke="#987c81" stroke-width="5" d="M 902.841,168.180 898.653,169.587 889.046,175.576 882.868,183.901 878.241,198.845 870.230,222.490 860.975,242.576 859.295,246.224 859.173,246.487 858.958,246.954" />
<path fill="none" stroke="#987c81" stroke-width="5" d="M 885.303,204.051 886.542,206.911 886.689,208.446 887.107,212.824" />
<path fill="none" stroke="#987c81" stroke-width="5" d="M 888.549,212.155 888.313,213.654 887.612,218.097 885.940,228.699 884.593,237.239 884.914,245.289 885.245,249.293 888.859,259.215 889.863,261.970 894.028,304.072 898.764,342.872 898.923,344.171" />
<path fill="none" stroke="#987c81" stroke-width="8" d="M 746.312,372.905 746.726,372.946 747.969,372.882" />
<path fill="none" stroke="#987c81" stroke-width="5" d="M 752.450,355.824 747.484,365.375 747.440,367.538 746.312,372.905 746.745,372.899 747.969,372.882 749.533,372.860 750.457,372.756 750.501,372.751 754.890,366.470 758.863,359.394 762.236,355.968 763.818,354.361 763.821,354.358 763.826,354.353 763.828,354.351 763.849,354.329" />
<path fill="none" stroke="#987c81" stroke-width="5" d="M 793.099,313.608 782.539,322.616 775.172,329.373 761.136,343.534 758.137,348.152 752.811,355.091 752.450,355.824 748.742,363.357" />
<path fill="none" stroke="#987c81" stroke-width="2" d="M 750.457,372.756 749.673,374.514 748.584,378.907 751.743,379.200 753.057,379.982" />
<path fill="none" stroke="#987c81" stroke-width="5" d="M 763.818,354.361 763.840,354.368 764.554,354.605 764.559,354.607 765.829,355.028 766.317,355.190 766.415,355.223 766.421,355.225 766.415,355.223" />
<path fill="none" stroke="#987c81" stroke-width="5" d="M 748.584,378.907 753.057,379.982 756.953,374.117 758.290,372.103 762.790,362.559 768.544,357.366" />
<path fill="none" stroke="#987c81" stroke-width="8" d="M 756.953,374.117 756.103,377.192 757.375,378.040 762.123,376.594 764.632,370.018 768.580,360.843 770.191,359.021 771.779,357.226 772.247,356.920 772.392,356.825 773.560,356.061 775.276,354.940 775.594,354.732 778.999,353.882 779.350,353.590 790.057,344.710 796.031,338.139 799.515,330.803 812.621,320.603 849.113,296.190 877.675,272.738 888.859,259.215" />
<path fill="none" stroke="#987c81" stroke-width="8" d="M 770.191,359.021 768.795,366.544 768.711,369.696 772.086,371.006 775.203,364.957 777.431,356.753 779.350,353.590" />
<path fill="none" stroke="#987c81" stroke-width="2" d="M 768.711,369.696 769.175,367.965" />
<path fill="none" stroke="#987c81" stroke-width="2" d="M 771.427,362.876 775.276,354.940" />
<path fill="none" stroke="#987c81" stroke-width="5" d="M 769.865,346.497 767.577,350.645 766.539,353.143 766.459,353.335 766.397,353.486 766.447,353.857 766.563,354.716 766.611,355.072 766.769,355.475 766.849,355.679 767.100,356.321 767.539,357.438 768.544,357.366 770.525,357.223 770.904,357.195 772.252,356.179 772.420,356.052 774.257,354.666 774.376,354.577 774.501,354.482 774.607,354.402 774.698,354.333 774.861,354.210 777.392,349.557 780.499,343.845 783.438,342.121 783.596,342.029 783.985,341.800 792.177,336.997" />
<path fill="none" stroke="#987c81" stroke-width="2" d="M 770.904,357.195 770.563,357.018 769.526,356.479 769.119,356.268" />
<path fill="none" stroke="#987c81" stroke-width="5" d="M 850.605,252.567 849.701,253.228 826.626,276.922 812.246,291.799 793.099,313.608 791.289,315.671" />
<path fill="none" stroke="#987c81" stroke-width="5" d="M 772.884,335.786 771.500,340.696 770.921,342.754 770.329,344.853 769.865,346.497 769.567,347.556" />
<path fill="none" stroke="#987c81" stroke-width="2" d="M 897.538,153.888 897.771,154.523 897.975,154.118" />
<path fill="none" stroke="#987c81" stroke-width="2" d="M 772.884,335.786 765.777,343.399" />
<path fill="none" stroke="#987c81" stroke-width="5" d="M 898.764,342.872 897.369,363.978 897.122,371.757 900.758,386.144 902.691,393.790" />
<path fill="none" stroke="#987c81" stroke-width="6" d="M 900.758,386.144 900.453,397.626 900.429,398.536 901.979,419.736 906.740,440.881 907.007,442.069 911.830,452.340" />
<path fill="none" stroke="#987c81" stroke-width="5" d="M 964.670,489.372 965.659,481.041 965.780,480.026 965.006,470.111" />
<path fill="none" stroke="#987c81" stroke-width="6" d="M 1060.621,524.825 1066.072,514.319 1065.871,508.992 1065.724,505.061 1061.714,500.823 1054.327,499.890 1046.409,500.662 1045.275,500.773 1044.447,499.822 1043.913,499.209 1035.749,496.099 1029.544,493.736 1029.127,493.265 1028.511,492.569 1023.991,489.178 998.609,470.132 982.442,462.834 974.839,461.275 971.038,461.123 969.442,461.058 969.102,461.045" />
<path fill="none" stroke="#987c81" stroke-width="6" d="M 948.321,502.958 962.687,503.736 967.762,504.011 969.863,504.590 980.376,507.491 988.246,509.662 1003.344,513.827 1021.685,521.242 1023.383,521.928 1024.021,522.186" />
<path fill="none" stroke="#987c81" stroke-width="6" d="M 1038.585,564.850 1038.626,565.094 1038.713,565.613 1038.802,566.138 1039.176,568.361 1037.592,573.957 1037.684,575.160 1037.618,578.351 1037.587,579.849 1039.940,581.834 1044.709,579.449 1045.852,577.066 1047.213,572.940 1052.672,563.767 1053.753,559.478 1053.982,557.740 1053.740,551.953 1053.287,541.138 1056.385,534.246 1060.621,524.825 1063.452,518.349 1065.660,511.677" />
<path fill="none" stroke="#987c81" stroke-width="5" d="M 895.867,131.435 894.401,136.005" />
<path fill="none" stroke="#987c81" stroke-width="5" d="M 898.396,158.651 898.965,160.480 900.738,166.176 902.688,168.114 902.841,168.180 905.840,169.473 909.222,170.431 911.591,171.102 919.911,170.704 920.182,170.691 920.251,170.688 920.620,170.670 920.770,170.663 921.782,170.615 921.795,170.614 921.905,170.609 922.950,170.559 923.075,170.553" />
<path fill="none" stroke="#987c81" stroke-width="8" d="M 891.944,123.172 891.331,129.710 893.484,149.092 898.965,160.480" />
<path fill="none" stroke="#987c81" stroke-width="2" d="M 1038.585,564.850 1034.703,569.685 1034.984,573.328 1034.999,573.526" />
<path fill="none" stroke="#987c81" stroke-width="6" d="M 1033.847,561.897 1033.111,563.527 1032.604,564.652 1032.139,565.683 1032.045,567.165 1031.869,569.940 1032.135,570.336 1031.942,573.058 1033.078,573.547 1033.855,573.458" />
<path fill="none" stroke="#987c81" stroke-width="6" d="M 1034.904,560.273 1035.279,561.254 1035.420,561.622 1035.449,561.700 1035.455,561.715 1035.463,561.737 1035.901,562.882 1036.148,563.528 1036.239,563.766 1036.131,564.009 1034.771,567.068 1033.917,568.989 1033.855,573.458 1033.838,574.685 1034.158,577.350 1035.918,578.786 1037.618,578.351" />
<path fill="none" stroke="#987c81" stroke-width="6" d="M 1031.916,531.562 1032.204,532.947 1034.349,543.247 1034.400,543.489 1034.893,545.861 1034.945,546.107 1035.210,550.183" />
<path fill="none" stroke="#987c81" stroke-width="6" d="M 1023.383,521.928 1027.617,526.041 1030.925,530.289 1031.916,531.562 1032.214,531.945 1033.753,533.921" />
<path fill="none" stroke="#987c81" stroke-width="2" d="M 1035.918,578.786 1036.121,577.068 1036.083,576.149" />
<path fill="none" stroke="#987c81" stroke-width="2" d="M 1033.038,561.243 1033.070,562.230 1033.111,563.527" />
<path fill="none" stroke="#987c81" stroke-width="6" d="M 1031.643,552.927 1033.308,556.369 1031.140,560.376 1031.195,561.527 1031.367,565.106 1031.332,566.642 1032.045,567.165" />
<path fill="none" stroke="#987c81" stroke-width="2" d="M 1034.904,560.273 1032.301,566.097" />
<path fill="none" stroke="#987c81" stroke-width="6" d="M 1034.299,558.397 1034.632,560.157 1034.579,560.276 1034.172,561.177 1033.847,561.897" />
<path fill="none" stroke="#987c81" stroke-width="5" d="M 929.002,401.630 929.117,401.678 929.127,401.682 930.145,402.110" />
<path fill="none" stroke="#987c81" stroke-width="6" d="M 1034.400,543.489 1034.149,544.949 1031.858,551.035 1030.168,556.425 1030.684,558.780 1030.693,561.088 1031.195,561.527" />
<path fill="none" stroke="#987c81" stroke-width="2" d="M 1031.643,552.927 1031.163,558.106" />
<path fill="none" stroke="#987c81" stroke-width="2" d="M 922.310,125.596 922.487,125.690 922.624,125.764 922.624,125.764 922.734,125.823 922.472,125.958 922.408,125.992" />
<path fill="none" stroke="#987c81" stroke-width="5" d="M 899.856,144.148 901.252,143.456 901.387,143.390 903.119,143.588 904.398,143.735 904.486,143.745 904.498,143.746 904.700,143.769" />
<path fill="none" stroke="#987c81" stroke-width="8" d="M 1016.734,207.239 1013.533,198.913 1002.775,182.433 985.840,173.355 975.878,164.692 970.919,154.046 969.809,146.948" />
<path fill="none" stroke="#987c81" stroke-width="8" d="M 969.102,150.902 969.809,146.948 971.125,139.582 972.914,136.099" />
<path fill="none" stroke="#987c81" stroke-width="2" d="M 914.613,127.657 914.891,127.712 915.039,127.741 915.101,127.753 915.112,127.755 917.938,128.308 919.434,127.533 921.004,126.719 922.193,126.103" />
<path fill="none" stroke="#987c81" stroke-width="8" d="M 983.973,246.989 986.760,247.464 990.517,248.104 992.493,248.440 995.084,250.539 1000.570,254.983 1007.661,260.937 1018.904,270.377" />
<path fill="none" stroke="#987c81" stroke-width="2" d="M 983.973,246.989 978.379,245.995 972.503,243.242" />
<path fill="none" stroke="#987c81" stroke-width="5" d="M 1020.697,214.452 1020.214,213.574 1019.437,212.159 1016.734,207.239 1013.194,200.797" />
<path fill="none" stroke="#987c81" stroke-width="8" d="M 1088.199,421.722 1089.715,426.556 1090.856,430.621 1092.922,432.101 1094.944,431.158 1095.900,428.295 1095.649,424.257 1094.652,419.064 1092.954,411.778 1092.011,392.265 1089.448,373.970 1086.920,327.872 1083.951,305.347 1078.147,287.775 1074.848,278.662 1065.497,265.990 1050.114,246.991 1041.201,233.884 1028.513,220.446 1027.373,219.420 1019.437,212.159" />
<path fill="none" stroke="#987c81" stroke-width="5" d="M 1003.485,256.117 1007.866,260.169 1018.904,270.377 1025.508,276.485 1041.093,289.888 1049.979,308.042 1050.498,309.102 1050.571,309.338 1060.419,341.208 1069.719,384.196 1067.911,387.909 1065.210,393.455" />
<path fill="none" stroke="#987c81" stroke-width="5" d="M 1060.744,416.616 1061.036,424.268 1060.812,425.242 1059.314,431.775 1055.463,441.613 1055.023,444.648 1055.132,447.741 1057.115,448.646 1059.191,448.183 1060.921,445.823 1063.365,440.949 1066.068,435.850 1067.132,431.988 1067.638,430.151" />
<path fill="none" stroke="#987c81" stroke-width="7" d="M 1078.870,432.701 1079.430,427.793" />
<path fill="none" stroke="#987c81" stroke-width="2" d="M 1075.982,447.368 1074.745,446.681" />
<path fill="none" stroke="#987c81" stroke-width="5" d="M 1070.717,429.406 1070.704,434.207 1070.020,441.707 1069.691,447.327 1069.937,448.939 1071.062,451.290 1074.210,450.945 1075.982,447.368 1076.571,445.868 1078.870,432.701 1077.967,436.448 1077.833,436.935 1077.740,437.277" />
<path fill="none" stroke="#987c81" stroke-width="2" d="M 1070.940,448.269 1071.062,451.290" />
<path fill="none" stroke="#987c81" stroke-width="8" d="M 1080.414,427.355 1081.398,431.032 1081.651,437.851 1081.950,439.428 1082.678,443.269 1084.225,445.969 1087.843,444.878 1088.528,440.101 1088.599,430.591 1088.188,425.479 1087.999,423.008" />
<path fill="none" stroke="#987c81" stroke-width="7" d="M 1067.911,387.909 1057.385,395.841 1050.625,404.102 1050.385,404.342 1044.692,410.045 1040.423,415.838 1041.767,419.216 1045.619,419.172 1051.550,414.760 1055.811,410.920 1056.392,410.835" />
<path fill="none" stroke="#987c81" stroke-width="7" d="M 1067.132,431.988 1069.203,427.986 1069.787,427.790" />
<path fill="none" stroke="#987c81" stroke-width="2" d="M 1069.787,427.790 1070.723,427.475 1073.364,424.976" />
<path fill="none" stroke="#987c81" stroke-width="5" d="M 1087.247,423.090 1087.545,422.662 1087.759,422.355 1087.931,422.108 1088.199,421.722 1088.576,421.181 1089.354,420.063" />
<path fill="none" stroke="#987c81" stroke-width="5" d="M 1055.867,410.638 1056.392,410.835 1059.593,412.035 1059.622,412.046 1060.146,412.242 1060.222,412.791 1060.299,413.358 1060.744,416.616 1061.716,423.723" />
<path fill="none" stroke="#987c81" stroke-width="2" d="M 911.388,156.719 914.845,156.829 916.445,156.879" />
<path fill="none" stroke="#987c81" stroke-width="8" d="M 1002.110,347.627 1001.993,347.306 999.199,339.614 992.493,321.154 990.574,315.871 991.576,312.985 1001.976,283.056 1007.661,260.937" />
<path fill="none" stroke="#987c81" stroke-width="8" d="M 992.493,321.154 991.969,319.353 991.576,312.985" />
<path fill="none" stroke="#987c81" stroke-width="8" d="M 923.371,666.001 926.038,654.300 928.530,643.368 929.169,641.258 939.865,605.957 940.072,605.274 945.505,587.342 948.450,555.017 947.961,550.103 942.372,525.943 941.846,523.668 941.696,523.019 946.676,506.197 948.321,502.958 962.364,475.312 964.282,471.536 964.774,470.568 964.803,470.511 965.006,470.111 965.151,469.825 967.281,465.092 968.635,462.083 969.102,461.045 969.435,460.304 984.814,426.124 1000.097,404.631 1002.984,399.916 1008.311,388.134 1009.189,386.192 1009.470,363.860 1001.844,345.217" />
<path fill="none" stroke="#987c81" stroke-width="8" d="M 1002.759,358.017 1002.110,347.627 1001.844,345.217 999.199,339.614" />
<path fill="none" stroke="#987c81" stroke-width="6" d="M 970.053,385.592 968.710,385.316 966.215,384.804 958.984,383.320 953.710,382.237 942.576,386.231 940.001,388.081 939.586,388.521 931.278,397.324 930.185,401.944 930.147,402.105 930.146,402.106 930.145,402.110 929.661,404.159 928.233,407.575 917.621,432.974 914.290,444.113 911.830,452.340 907.976,465.231 907.373,468.564 903.866,487.969 900.026,509.217 899.611,512.952 898.944,526.235 901.772,540.493 902.236,542.834 903.042,546.898 900.281,582.800 900.361,585.542 900.383,586.325 900.985,606.973" />
<path fill="none" stroke="#987c81" stroke-width="2" d="M 973.343,382.672 971.732,382.362 963.670,380.813" />
<path fill="none" stroke="#987c81" stroke-width="5" d="M 901.169,603.526 900.985,606.973 900.502,616.035 899.961,626.187 898.843,647.176 898.521,653.228 898.405,655.401" />
<path fill="none" stroke="#987c81" stroke-width="5" d="M 861.679,680.606 858.402,680.517 857.453,680.492 855.590,681.146 852.913,682.085 851.177,683.394 848.920,685.008 849.053,686.245 849.714,687.403 850.112,688.100 850.473,688.734 851.600,689.193 853.460,689.949 855.914,689.665 856.233,689.628" />
<path fill="none" stroke="#987c81" stroke-width="8" d="M 964.406,126.000 967.849,120.818 969.871,118.928 970.026,118.784 976.270,119.410 978.897,124.451 979.010,124.667 977.924,129.454 973.565,135.579" />
<path fill="none" stroke="#987c81" stroke-width="5" d="M 961.844,140.252 962.898,137.776 964.530,133.939 964.252,130.897 964.250,130.869 964.232,130.682" />
<path fill="none" stroke="#987c81" stroke-width="2" d="M 966.432,125.415 968.262,127.680 971.318,127.719 971.873,127.726 974.702,129.676" />
<path fill="none" stroke="#987c81" stroke-width="5" d="M 967.897,135.530 969.172,135.547 969.326,135.549 970.809,135.569 970.834,135.569 973.182,135.578 973.565,135.579 972.914,136.099 969.239,139.034 968.321,139.767 967.173,140.684 964.488,141.810 962.930,142.462 960.959,141.462 960.933,141.449 959.575,140.760 959.091,140.514 958.412,140.170" />
<path fill="none" stroke="#987c81" stroke-width="2" d="M 966.469,129.535 968.523,130.356 970.265,131.074 970.635,131.227 970.873,131.325 971.033,131.391 970.800,131.471 970.274,131.652 970.060,131.726 968.672,132.205" />
<path fill="none" stroke="#987c81" stroke-width="2" d="M 964.404,119.658 968.498,118.325" />
<path fill="none" stroke="#987c81" stroke-width="5" d="M 976.270,119.410 976.121,119.389 972.751,118.919" />
<path fill="none" stroke="#987c81" stroke-width="5" d="M 960.729,141.642 960.959,141.462" />
<path fill="none" stroke="#987c81" stroke-width="5" d="M 874.976,690.308 874.979,690.000 874.836,689.445 874.659,688.751 874.241,687.124 873.337,687.103 873.162,687.099 869.222,687.009 867.299,687.710 865.228,688.466 863.399,689.040 863.174,689.110 863.089,689.483 863.041,689.692 862.981,691.587 862.977,691.703 862.977,691.727 862.971,691.887 862.948,692.643 862.935,693.052 864.502,694.269 867.627,694.852 868.324,694.857 868.397,694.858 869.029,694.863 869.207,694.864 869.413,694.866 869.759,694.868" />
<path fill="none" stroke="#987c81" stroke-width="5" d="M 921.910,677.279 921.953,677.232 922.486,676.641 922.756,673.395 923.371,666.001 923.737,661.599" />
<path fill="none" stroke="#987c81" stroke-width="6" d="M 915.306,697.832 918.133,695.591 919.366,694.614 921.707,689.351 922.039,688.604 922.756,673.395" />
<path fill="none" stroke="#987c81" stroke-width="5" d="M 891.596,667.287 884.124,669.666 883.977,669.712 882.318,670.241 882.252,670.262 866.324,675.331" />
<path fill="none" stroke="#987c81" stroke-width="5" d="M 898.521,653.228 896.055,660.423 891.078,665.621 883.294,669.598 866.389,675.020 856.294,676.278 855.414,676.526 851.676,677.579 847.174,679.438 843.289,681.654 844.146,686.159 846.712,687.752 850.112,688.100" />
<path fill="none" stroke="#987c81" stroke-width="2" d="M 903.244,688.194 909.306,684.969" />
<path fill="none" stroke="#987c81" stroke-width="2" d="M 863.174,689.110 863.498,689.324 864.881,690.235 866.238,692.214 866.273,692.279 866.278,692.290 867.316,694.262 867.364,694.353 867.431,694.479 867.627,694.852" />
<path fill="none" stroke="#987c81" stroke-width="2" d="M 873.362,697.237 874.842,697.988 882.927,701.330 902.151,698.115 903.578,698.084 905.690,698.039 913.414,697.873 915.306,697.832 913.383,697.887 908.762,698.020 905.690,698.039" />
<path fill="none" stroke="#987c81" stroke-width="2" d="M 895.918,665.173 896.055,660.423" />
<path fill="none" stroke="#987c81" stroke-width="5" d="M 868.852,684.116 866.908,684.056 864.588,683.985 864.024,683.968 863.658,683.965 862.766,683.959 862.266,683.955 857.936,685.435 857.537,685.572 856.895,685.837 856.741,685.900 855.844,686.270 855.885,686.668 855.936,687.160 855.987,687.649 856.103,688.765 856.105,688.787 856.120,688.931 856.120,688.933 856.233,689.628 856.280,689.920 858.742,692.553 861.651,691.888 862.620,691.666" />
<path fill="none" stroke="#987c81" stroke-width="2" d="M 843.289,681.654 846.741,683.229 851.436,681.683" />
<path fill="none" stroke="#987c81" stroke-width="2" d="M 848.920,685.008 851.332,685.504 854.100,684.344 855.680,683.500 859.669,681.370 860.903,681.481 864.153,681.773 863.658,683.965" />
<path fill="none" stroke="#987c81" stroke-width="2" d="M 861.679,680.606 857.609,679.936" />
<path fill="none" stroke="#987c81" stroke-width="5" d="M 861.900,691.544 862.620,691.666 862.723,691.684 862.977,691.727" />
<path fill="none" stroke="#987c81" stroke-width="2" d="M 855.844,686.270 857.472,687.053 857.964,686.903 859.783,686.345" />
<path fill="none" stroke="#987c81" stroke-width="5" d="M 875.985,691.167 874.962,692.093 874.937,692.116 873.842,693.107 871.398,693.494 869.645,692.373 870.777,691.758 872.508,690.765 874.693,690.361 874.866,690.329 874.875,690.327 874.976,690.308 875.906,690.136 876.367,690.051 879.110,689.543" />
<path fill="none" stroke="#987c81" stroke-width="5" d="M 869.645,692.373 869.759,694.868 869.759,694.868 869.767,695.043 869.769,695.090 869.783,695.398 869.784,695.399 869.785,695.422 869.787,695.477 872.326,697.414 873.362,697.237 875.336,696.900 875.394,696.890 876.014,696.909 878.716,696.993" />
<path fill="none" stroke="#987c81" stroke-width="2" d="M 879.110,689.543 874.241,687.124" />
<path fill="none" stroke="#987c81" stroke-width="2" d="M 911.696,124.767 912.157,124.823" />
<path fill="none" stroke="#987c81" stroke-width="2" d="M 772.164,367.587 772.086,371.006" />
<path fill="none" stroke="#987c81" stroke-width="2" d="M 771.207,347.009 773.003,343.598 778.630,332.910" />
<path fill="none" stroke="#987c81" stroke-width="2" d="M 892.139,117.087 892.200,117.670 892.337,118.971 892.536,120.854 892.845,120.990 894.698,121.810 894.714,121.817 895.373,122.108" />
<path fill="none" stroke="#987c81" stroke-width="2" d="M 919.879,122.204 913.244,120.817 912.929,120.752 912.841,120.733 912.924,120.773 913.213,120.913 915.307,121.924" />
<path fill="none" stroke="#987c81" stroke-width="5" d="M 903.572,155.832 905.076,156.088 905.355,156.136 906.078,156.206 911.388,156.719" />
<path fill="none" stroke="#987c81" stroke-width="2" d="M 960.729,141.642 958.412,140.170" />
<path fill="none" stroke="#987c81" stroke-width="2" d="M 992.493,248.440 987.503,246.097 983.417,244.179" />
<path fill="none" stroke="#987c81" stroke-width="7" d="M 1070.723,427.475 1070.717,429.406" />
<path fill="none" stroke="#987c81" stroke-width="2" d="M 1085.449,442.238 1083.823,443.567" />
<path fill="none" stroke="#987c81" stroke-width="2" d="M 1092.922,432.101 1092.104,431.092" />
<path fill="none" stroke="#987c81" stroke-width="5" d="M 1078.710,428.670 1079.296,427.545 1079.363,427.415 1079.504,427.144 1079.990,426.209 1080.068,426.060 1080.099,425.999 1080.132,425.935 1080.144,425.913 1080.249,425.710 1081.690,422.941" />
<path fill="none" stroke="#987c81" stroke-width="2" d="M 873.461,696.443 874.864,696.149 877.115,695.677 878.716,696.993" />
<path fill="none" stroke="#987c81" stroke-width="5" d="M 893.527,116.034 892.993,115.851 892.992,115.851 892.681,115.744 892.140,115.559 892.137,115.558 892.124,115.554 892.004,115.513 891.838,115.456 891.748,115.425 891.739,115.422 890.461,114.985 891.866,115.948 892.080,116.094 892.192,116.171 892.324,116.262 893.070,116.773 893.141,116.821 893.358,116.970 893.761,117.246 893.830,117.293 894.324,117.632 898.258,120.327" />
<path fill="none" stroke="#987c81" stroke-width="2" d="M 922.173,125.683 921.505,125.164" />
<path fill="none" stroke="#987c81" stroke-width="5" d="M 922.173,125.683 920.648,124.834" />
<path fill="none" stroke="#987c81" stroke-width="5" d="M 915.450,121.940 915.656,122.067 915.844,122.183 916.073,122.324 916.089,122.334 916.626,122.666 917.434,123.165 917.946,123.481 918.056,123.549 918.157,123.611 922.034,126.005 922.062,126.022 922.124,126.060 922.193,126.103 922.305,126.172 922.757,126.451" />
<path fill="none" stroke="#987c81" stroke-width="5" d="M 922.310,125.596 922.173,125.683 922.285,125.831 922.335,125.897 922.408,125.992 922.427,126.017 922.458,126.058 922.757,126.451 922.338,126.130 922.259,126.069 922.246,126.059 922.147,125.983 922.108,125.953 920.870,125.004 920.648,124.834 920.089,124.405 918.646,123.299 918.335,123.167 918.327,123.163 917.531,122.825 916.883,122.549 916.086,122.210 915.808,122.092 915.450,121.940 915.307,121.924 913.758,121.753 913.682,121.744 913.678,121.744 913.607,121.736 913.306,121.703 912.967,121.665 912.788,121.645 912.735,121.640 912.691,121.635 912.364,121.598 912.021,121.560 911.735,121.643 910.904,121.882 910.746,122.527 910.436,123.796 910.943,123.877 911.766,124.007" />
<path fill="none" stroke="#987c81" stroke-width="5" d="M 914.051,126.131 913.503,125.092 913.414,125.060 913.394,125.053 913.158,124.968 913.064,124.934 912.974,124.901 912.544,124.747 912.339,124.673 912.334,124.677 912.157,124.823 911.412,125.436 911.196,125.614 910.336,126.321 911.401,127.616 911.931,128.259 913.619,129.244 913.682,129.281 914.094,129.521 915.639,130.423 915.950,130.393 917.541,130.237 919.191,130.076 920.618,129.936 921.837,129.032 922.536,128.513 923.133,128.070 923.209,128.013 923.336,127.919 923.262,127.828 923.052,127.569 922.936,127.425 922.116,126.415 922.305,126.172" />
<path fill="none" stroke="#987c81" stroke-width="5" d="M 898.838,120.893 896.953,121.448" />
<path fill="none" stroke="#987c81" stroke-width="5" d="M 896.953,121.448 895.224,121.557 894.986,121.572 894.726,121.588 894.645,121.551 894.550,121.507 893.632,121.087 893.032,119.823 893.242,118.802" />
<path fill="none" stroke="#987c81" stroke-width="5" d="M 899.036,120.362 898.788,120.351 898.721,120.348 898.258,120.327 895.541,117.591 893.986,116.750 893.669,116.579 893.625,116.555 893.397,116.432 893.170,116.309 893.025,116.238 892.399,115.932 892.162,115.817 892.036,115.755 891.790,115.635 890.461,114.985 888.934,114.832 888.255,115.331 887.677,116.633 891.612,117.178 892.139,117.087 892.207,117.075 892.268,117.064 892.272,117.063 893.073,116.925 893.082,116.911" />
<path fill="none" stroke="#987c81" stroke-width="5" d="M 892.200,117.670 891.480,117.910 889.915,118.560 890.891,121.574 891.944,123.172 892.455,123.949 892.605,123.949 896.139,123.959 896.182,123.959 896.537,123.818 898.464,123.047 898.555,122.526 898.570,122.438 898.838,120.893" />
<path fill="none" stroke="#987c81" stroke-width="5" d="M 893.070,116.773 893.082,116.911 893.089,116.993 893.120,117.363 893.202,118.327 893.242,118.802 893.267,119.093 894.550,121.507" />
<path fill="none" stroke="#987c81" stroke-width="5" d="M 919.012,127.627 918.164,127.815 918.020,127.848 917.848,127.886 916.818,127.709 916.062,127.579 915.785,127.404 915.759,127.388 915.481,127.213 914.193,126.400" />
<path fill="none" stroke="#987c81" stroke-width="2" d="M 891.480,117.910 892.085,121.661 892.455,123.949" />
<path fill="none" stroke="#987c81" stroke-width="2" d="M 1034.116,566.749 1035.901,562.882" />
<path fill="none" stroke="#960013" stroke-width="8" d="M 746.808,874.002 747.969,873.399" />
<path fill="none" stroke="#960013" stroke-width="8" d="M 686.038,905.524 736.527,879.334" />
<path fill="none" stroke="#987c81" stroke-width="2" d="M 763.821,354.358 763.841,354.365 764.180,354.481 764.609,354.614 765.150,354.782" />
<path fill="none" stroke="#987c81" stroke-width="2" d="M 763.826,354.353 763.844,354.359 764.564,354.599" />
<path fill="none" stroke="#987c81" stroke-width="2" d="M 770.329,344.853 767.698,346.782 766.971,345.802 768.773,342.982 771.201,340.502 771.500,340.696 772.155,341.121 771.433,343.655 771.359,343.915" />
<path fill="none" stroke="#987c81" stroke-width="2" d="M 771.359,343.915 770.901,344.619" />
<path fill="none" stroke="#987c81" stroke-width="2" d="M 770.921,342.754 770.396,342.756" />
<path fill="none" stroke="#987c81" stroke-width="2" d="M 773.560,356.061 772.236,358.470 772.247,356.920" />
<path fill="none" stroke="#987c81" stroke-width="2" d="M 774.257,354.666 774.758,354.551 774.607,354.402" />
<path fill="none" stroke="#987c81" stroke-width="2" d="M 774.501,354.482 775.547,354.494 778.754,353.943" />
<path fill="none" stroke="#987c81" stroke-width="2" d="M 783.596,342.029 784.733,341.495 785.570,341.049 790.716,338.307 791.622,339.025 790.009,340.046 783.165,344.538 779.724,348.965" />
<path fill="none" stroke="#987c81" stroke-width="2" d="M 779.739,343.909 780.862,343.281 787.799,339.399" />
<path fill="none" stroke="#987c81" stroke-width="5" d="M 783.438,342.121 789.998,338.951" />
<path fill="none" stroke="#960013" stroke-width="8" d="M 743.895,870.629 747.969,873.399 751.176,875.579" />
<path fill="none" stroke="#960013" stroke-width="8" d="M 818.744,868.213 819.646,886.490 820.578,905.366" />
<path fill="none" stroke="#987c81" stroke-width="2" d="M 858.402,680.517 859.059,680.174 862.802,679.331 862.771,681.121 861.383,680.939 860.951,680.883" />
<path fill="none" stroke="#987c81" stroke-width="5" d="M 860.975,242.576 850.605,252.567 847.358,255.696" />
<path fill="none" stroke="#987c81" stroke-width="5" d="M 861.651,691.888 862.948,692.643" />
<path fill="none" stroke="#987c81" stroke-width="5" d="M 862.723,691.684 862.971,691.887" />
<path fill="none" stroke="#987c81" stroke-width="2" d="M 864.588,683.985 865.360,683.345 866.908,684.056 867.382,684.274" />
<path fill="none" stroke="#987c81" stroke-width="2" d="M 867.382,684.274 864.730,684.238" />
<path fill="none" stroke="#987c81" stroke-width="2" d="M 867.299,687.710 868.075,686.189 869.237,685.480 870.911,684.009 875.955,683.233 884.177,680.419 884.790,684.910 881.961,687.145 877.554,685.890 873.337,687.103" />
<path fill="none" stroke="#987c81" stroke-width="5" d="M 868.324,694.857 869.617,695.337 869.784,695.399" />
<path fill="none" stroke="#987c81" stroke-width="2" d="M 873.596,696.263 873.992,696.730 875.145,696.650 875.687,696.507 876.014,696.909 876.295,697.257 875.336,696.900" />
<path fill="none" stroke="#987c81" stroke-width="5" d="M 869.617,695.337 869.785,695.422" />
<path fill="none" stroke="#987c81" stroke-width="2" d="M 874.875,690.327 874.446,688.589 874.659,688.751 876.367,690.051 877.285,690.749" />
<path fill="none" stroke="#987c81" stroke-width="2" d="M 874.866,690.329 874.538,689.252 874.836,689.445 875.906,690.136 877.072,690.890" />
<path fill="none" stroke="#987c81" stroke-width="2" d="M 877.072,690.890 874.968,691.348" />
<path fill="none" stroke="#987c81" stroke-width="2" d="M 877.285,690.749 874.970,691.145" />
<path fill="none" stroke="#987c81" stroke-width="2" d="M 883.540,670.023 878.375,671.667 875.864,672.322 881.907,670.454 882.318,670.241 885.757,668.448" />
<path fill="none" stroke="#987c81" stroke-width="2" d="M 883.743,669.954 876.757,672.159 875.283,672.488 882.054,670.364 882.252,670.262 885.676,668.491" />
<path fill="none" stroke="#987c81" stroke-width="2" d="M 886.689,208.446 884.749,205.667 883.845,204.283 884.342,199.644 884.514,199.433 886.686,200.952 887.303,206.862 887.375,207.558 887.392,207.722 887.595,209.662 887.107,212.824" />
<path fill="none" stroke="#987c81" stroke-width="5" d="M 887.107,212.824 887.612,218.097" />
<path fill="none" stroke="#987c81" stroke-width="2" d="M 887.107,212.824 887.987,213.368 888.313,213.654" />
<path fill="none" stroke="#987c81" stroke-width="2" d="M 890.598,112.019 891.407,113.250 891.723,113.344 891.872,113.389 892.807,113.668 893.153,113.771 893.526,113.883 896.954,116.991 899.409,117.804 901.530,120.288 902.086,121.867 900.682,123.309 900.488,125.054 900.488,125.057 900.438,125.511 899.073,126.852 898.358,127.222 896.850,128.685 894.593,127.202 892.434,126.656 892.605,123.949" />
<path fill="none" stroke="#987c81" stroke-width="2" d="M 891.838,115.456 891.996,115.447 892.093,115.442 892.124,115.554" />
<path fill="none" stroke="#987c81" stroke-width="2" d="M 892.993,115.851 893.031,115.540" />
<path fill="none" stroke="#987c81" stroke-width="2" d="M 893.059,117.383 893.002,117.001" />
<path fill="none" stroke="#987c81" stroke-width="5" d="M 893.120,117.363 893.059,117.383 892.316,117.631" />
<path fill="none" stroke="#987c81" stroke-width="2" d="M 893.089,116.993 892.272,117.063" />
<path fill="none" stroke="#987c81" stroke-width="2" d="M 894.901,135.897 894.852,140.235 894.764,140.673 895.165,141.537 896.379,142.208 897.073,144.423 897.892,145.236 897.950,145.389 898.417,146.601" />
<path fill="none" stroke="#987c81" stroke-width="2" d="M 896.472,132.799 895.827,133.831 894.677,135.672 894.940,135.815 894.930,135.152 894.918,134.392 894.909,135.185" />
<path fill="none" stroke="#987c81" stroke-width="2" d="M 896.312,117.427 895.732,116.692 894.222,115.764" />
<path fill="none" stroke="#987c81" stroke-width="2" d="M 897.986,154.124 897.799,154.620 897.676,154.948" />
<path fill="none" stroke="#987c81" stroke-width="2" d="M 897.627,155.169 897.188,153.703" />
<path fill="none" stroke="#987c81" stroke-width="2" d="M 898.570,122.438 898.577,122.433 898.950,121.565 899.358,121.042 899.411,120.974" />
<path fill="none" stroke="#987c81" stroke-width="2" d="M 897.676,154.948 898.601,157.316" />
<path fill="none" stroke="#987c81" stroke-width="2" d="M 898.481,154.384 898.041,154.420" />
<path fill="none" stroke="#987c81" stroke-width="2" d="M 896.907,118.367 896.224,117.768" />
<path fill="none" stroke="#987c81" stroke-width="2" d="M 899.411,120.974 899.076,120.639 898.788,120.351" />
<path fill="none" stroke="#987c81" stroke-width="2" d="M 899.667,154.332 899.859,154.405 899.952,154.438 900.841,154.754 900.950,154.685" />
<path fill="none" stroke="#987c81" stroke-width="2" d="M 902.272,158.111 901.616,157.957 901.559,157.920 901.553,157.917 901.529,157.901 901.245,157.722" />
<path fill="none" stroke="#987c81" stroke-width="2" d="M 902.851,157.096 902.428,156.839 901.365,156.688 901.345,156.685 901.323,156.682 901.183,156.662 900.385,155.289" />
<path fill="none" stroke="#987c81" stroke-width="2" d="M 904.266,143.274 904.486,143.745 904.490,143.753 904.784,144.380 905.012,144.868 905.642,146.214 905.677,146.288 906.920,148.945 906.971,149.055 906.957,148.938 906.628,146.325 906.532,145.558 906.264,143.429 906.193,142.861 906.189,142.833 906.381,142.179 906.554,141.589" />
<path fill="none" stroke="#987c81" stroke-width="2" d="M 912.485,122.983 912.512,123.784 912.544,124.747" />
<path fill="none" stroke="#987c81" stroke-width="2" d="M 911.959,123.999 911.924,124.119 912.334,124.677" />
<path fill="none" stroke="#987c81" stroke-width="2" d="M 913.064,124.934 913.153,124.945 913.735,125.016" />
<path fill="none" stroke="#987c81" stroke-width="2" d="M 915.715,168.336 913.141,169.254 919.446,170.381 919.613,170.380 920.080,170.375 920.142,170.374 920.482,170.370 921.450,170.360 921.818,170.356 921.934,170.355 923.029,170.343 928.730,170.283" />
<path fill="none" stroke="#987c81" stroke-width="5" d="M 912.710,122.778 913.164,122.765 913.224,122.763 913.604,122.753 913.698,122.750 916.031,122.683 916.394,122.672 916.626,122.666" />
<path fill="none" stroke="#987c81" stroke-width="2" d="M 916.822,168.845 915.138,169.447 918.203,170.495 919.736,170.514 920.126,170.518 920.464,170.522 920.552,170.523 921.690,170.537 921.793,170.538 921.913,170.539 922.952,170.552 923.075,170.553" />
<path fill="none" stroke="#987c81" stroke-width="5" d="M 919.911,170.704 920.337,171.168 920.450,171.291 920.923,171.805 921.366,172.287" />
<path fill="none" stroke="#987c81" stroke-width="2" d="M 920.251,170.688 920.450,171.291 921.323,173.933 921.440,174.289 921.472,174.421 921.494,174.511 922.239,177.585 922.837,180.781 923.063,188.200 924.348,190.656 931.302,193.565" />
<path fill="none" stroke="#987c81" stroke-width="5" d="M 920.628,172.064 921.296,174.122 921.396,174.430 921.452,174.601" />
<path fill="none" stroke="#987c81" stroke-width="5" d="M 920.337,171.168 920.628,172.064" />
<path fill="none" stroke="#987c81" stroke-width="2" d="M 920.628,172.064 920.923,171.805" />
<path fill="none" stroke="#987c81" stroke-width="2" d="M 921.396,174.430 921.325,174.952" />
<path fill="none" stroke="#987c81" stroke-width="5" d="M 921.296,174.122 921.091,175.604" />
<path fill="none" stroke="#987c81" stroke-width="5" d="M 922.472,125.958 922.624,125.764 922.624,125.764" />
<path fill="none" stroke="#987c81" stroke-width="5" d="M 920.770,170.663 921.715,171.098 921.720,171.100 921.839,171.155 921.843,171.157 922.601,171.506 923.674,172.000" />
<path fill="none" stroke="#987c81" stroke-width="2" d="M 923.133,128.070 923.302,128.018 924.076,127.781 925.321,127.025" />
<path fill="none" stroke="#987c81" stroke-width="2" d="M 923.075,170.553 926.266,170.270 926.573,170.158 930.460,168.745 936.197,168.864 939.615,170.161 944.889,168.186 950.216,165.627 957.183,163.884 963.669,160.666 966.506,164.669 971.669,168.017 975.851,171.811 974.765,173.815 973.330,178.062 974.915,182.211 968.989,191.559 972.867,195.016 973.032,198.713 971.631,200.097 968.270,201.446 965.546,203.502 958.718,204.189 958.717,198.319 949.316,199.289 939.964,203.112 936.650,203.364 934.575,204.683 922.234,197.878 919.299,195.756 917.543,191.496 914.604,188.030 910.063,189.456 906.527,182.796 912.815,183.061 915.203,182.798 916.545,176.368 913.430,176.152 909.301,172.761 909.222,170.431" />
<path fill="none" stroke="#987c81" stroke-width="2" d="M 928.233,407.575 925.502,405.427 924.782,400.114 929.127,401.682 929.202,401.709" />
<path fill="none" stroke="#987c81" stroke-width="2" d="M 928.730,170.283 929.315,170.213 929.424,170.178 930.662,169.776 937.981,167.362 943.703,163.640 946.964,159.009 948.545,157.972 961.429,147.641 961.760,156.682" />
<path fill="none" stroke="#987c81" stroke-width="5" d="M 928.730,170.283 930.742,170.187" />
<path fill="none" stroke="#987c81" stroke-width="5" d="M 923.075,170.553 928.730,170.283" />
<path fill="none" stroke="#987c81" stroke-width="2" d="M 929.202,401.709 930.147,402.105" />
<path fill="none" stroke="#987c81" stroke-width="2" d="M 929.189,401.704 930.146,402.106" />
<path fill="none" stroke="#960013" stroke-width="2" d="M 926.038,654.300 940.923,647.323" />
<path fill="none" stroke="#987c81" stroke-width="2" d="M 939.586,388.521 936.228,384.609 934.396,382.473 939.634,378.951 940.772,376.658 956.789,373.945 960.065,375.227 960.978,375.603 967.665,378.355 972.451,379.540 972.687,379.453 974.866,378.643 974.971,378.604 975.870,378.270 978.122,377.433" />
<path fill="none" stroke="#960013" stroke-width="8" d="M 802.331,895.801 819.646,886.490" />
<path fill="none" stroke="#987c81" stroke-width="2" d="M 969.239,139.034 968.119,141.507 964.753,142.307 962.043,144.331 958.996,140.541 959.091,140.514 959.501,140.400" />
<path fill="none" stroke="#987c81" stroke-width="2" d="M 959.501,140.400 961.275,141.125 961.350,141.156 962.202,141.505 963.062,140.823 966.643,138.370 969.326,135.549" />
<path fill="none" stroke="#960013" stroke-width="2" d="M 962.687,503.736 962.813,514.864" />
<path fill="none" stroke="#987c81" stroke-width="2" d="M 962.516,138.109 964.079,134.177 963.783,132.306 963.879,131.066" />
<path fill="none" stroke="#987c81" stroke-width="2" d="M 963.811,131.140 964.252,130.897 965.210,130.370 966.556,129.982 967.822,130.496" />
<path fill="none" stroke="#987c81" stroke-width="2" d="M 963.879,131.066 964.250,130.869 965.291,130.316 966.560,130.001 967.436,130.573 970.263,131.080 970.293,131.086 970.299,130.967 970.391,128.889 968.390,128.994 967.028,128.956 966.451,127.596 965.608,125.653 967.062,122.988 968.685,120.691 969.458,119.975 972.234,120.702 973.456,120.909 974.558,121.096 975.407,122.836 977.161,124.803 976.928,125.734 976.218,129.667 976.087,130.392 975.523,131.117 975.444,131.173 974.493,131.852 975.533,130.359 976.123,126.215 975.958,125.312 974.385,124.247 972.715,123.268 971.971,122.831 970.607,122.352 969.585,123.963 968.292,125.400" />
<path fill="none" stroke="#987c81" stroke-width="2" d="M 964.717,482.049 965.356,477.035 964.803,470.511" />
<path fill="none" stroke="#987c81" stroke-width="2" d="M 966.173,384.857 954.173,382.420 949.657,385.261 943.856,387.229 942.166,391.528" />
<path fill="none" stroke="#960013" stroke-width="2" d="M 966.205,872.007 967.943,1022.946" />
<path fill="none" stroke="#987c81" stroke-width="2" d="M 967.281,465.092 970.961,466.183 972.994,469.190 967.581,475.289 968.492,478.009 965.659,481.041 964.717,482.049" />
<path fill="none" stroke="#987c81" stroke-width="2" d="M 972.751,118.919 969.426,118.604 969.332,118.692 968.100,119.853 965.541,120.041 964.405,122.264 962.474,125.174 962.651,128.325 961.353,132.762 959.990,134.783 959.784,137.468 958.271,138.141 954.758,137.770 951.964,130.189" />
<path fill="none" stroke="#987c81" stroke-width="5" d="M 972.751,118.919 968.498,118.325" />
<path fill="none" stroke="#960013" stroke-width="6" d="M 980.376,507.491 969.933,511.875 962.813,514.864 941.846,523.668" />
<path fill="none" stroke="#987c81" stroke-width="2" d="M 995.084,250.539 991.826,255.594 990.461,265.591 985.968,265.652 982.270,260.611 976.598,259.979 973.293,260.471 970.998,255.612 974.978,250.084 977.032,251.992 981.493,246.548 977.556,244.893 974.236,242.246 973.472,237.901 976.024,237.708 985.774,237.338 989.980,244.042 989.085,245.697 988.690,246.426 992.343,248.101 992.633,248.350 992.638,248.354" />
<path fill="none" stroke="#987c81" stroke-width="6" d="M 1030.925,530.289 1032.204,532.947" />
<path fill="none" stroke="#987c81" stroke-width="2" d="M 1033.344,556.314 1033.058,554.292" />
<path fill="none" stroke="#987c81" stroke-width="2" d="M 1033.058,554.292 1033.762,555.956 1033.845,556.152" />
<path fill="none" stroke="#987c81" stroke-width="2" d="M 1033.845,556.152 1033.888,555.938" />
<path fill="none" stroke="#987c81" stroke-width="2" d="M 1034.579,560.276 1033.846,559.420 1033.893,557.566 1034.149,556.029 1034.171,555.896 1034.247,555.438 1034.487,554.001 1034.849,549.236 1034.893,545.861" />
<path fill="none" stroke="#987c81" stroke-width="2" d="M 1035.210,550.183 1035.299,550.390 1037.951,556.539 1036.367,556.078 1035.320,555.773 1035.155,555.725 1035.150,555.786 1034.860,558.842 1034.732,560.199 1034.272,561.081 1033.847,561.897" />
<path fill="none" stroke="#987c81" stroke-width="2" d="M 1034.635,542.118 1035.112,544.720 1035.210,550.183" />
<path fill="none" stroke="#987c81" stroke-width="6" d="M 1035.210,550.183 1035.346,552.274" />
<path fill="none" stroke="#987c81" stroke-width="2" d="M 1036.131,564.009 1035.380,564.012 1034.648,563.778 1035.463,561.737 1035.614,561.362" />
<path fill="none" stroke="#987c81" stroke-width="2" d="M 1035.614,561.362 1036.212,562.859" />
<path fill="none" stroke="#987c81" stroke-width="8" d="M 1049.979,308.042 1050.571,309.338" />
<path fill="none" stroke="#987c81" stroke-width="2" d="M 1057.809,410.628 1058.706,411.702 1057.862,410.839 1058.976,410.879 1059.078,410.883 1059.948,410.914 1060.458,413.344 1060.566,413.858 1060.656,414.288 1060.698,414.492 1060.948,415.681 1060.829,415.676 1060.708,415.672 1060.615,415.668 1060.406,413.558 1060.345,412.945" />
<path fill="none" stroke="#987c81" stroke-width="2" d="M 1060.345,412.945 1060.222,412.791 1059.622,412.046 1059.553,411.960" />
<path fill="none" stroke="#987c81" stroke-width="7" d="M 1059.593,412.035 1060.299,413.358" />
<path fill="none" stroke="#987c81" stroke-width="2" d="M 1069.787,427.790 1070.941,426.728 1070.663,426.061 1074.546,421.751 1075.082,424.993 1074.119,426.907 1072.560,428.629 1071.357,431.286 1070.717,429.406" />
<path fill="none" stroke="#987c81" stroke-width="2" d="M 1077.854,436.813 1077.833,436.935 1077.597,438.326 1077.350,438.502 1077.756,437.210 1077.770,437.165 1077.854,436.813" />
<path fill="none" stroke="#987c81" stroke-width="2" d="M 1079.430,427.793 1079.363,427.415 1079.264,426.855 1079.590,426.390 1079.896,425.954 1080.000,425.806 1080.074,425.700 1080.773,424.704 1080.605,424.295 1080.342,423.654 1079.785,420.821 1082.273,419.752 1083.172,419.365 1082.827,423.259 1082.197,424.345 1081.922,424.819 1081.227,426.331 1080.663,427.504 1080.553,427.732" />
<path fill="none" stroke="#987c81" stroke-width="2" d="M 1079.296,427.545 1079.430,427.793" />
<path fill="none" stroke="#987c81" stroke-width="7" d="M 1079.430,427.793 1079.504,427.144" />
<path fill="none" stroke="#987c81" stroke-width="2" d="M 1080.099,425.999 1080.111,426.222 1080.172,425.998" />
<path fill="none" stroke="#987c81" stroke-width="2" d="M 1080.553,427.732 1080.132,425.935" />
<path fill="none" stroke="#987c81" stroke-width="5" d="M 1080.553,427.732 1082.074,431.845 1082.135,432.010" />
<path fill="none" stroke="#987c81" stroke-width="5" d="M 1079.990,426.209 1080.414,427.355 1080.553,427.732" />
<path fill="none" stroke="#960013" stroke-width="8" d="M 1050.385,404.342 1008.311,388.134" />
<path fill="none" stroke="#960013" stroke-width="2" d="M 971.038,461.123 1060.812,425.242" />
<path fill="none" stroke="#960013" stroke-width="8" d="M 1081.530,465.020 1081.950,439.428" />
<path fill="none" stroke="#987c81" stroke-width="2" d="M 1087.999,423.008 1087.759,422.355 1087.533,421.745" />
<path fill="none" stroke="#987c81" stroke-width="2" d="M 1087.545,422.662 1087.999,423.008" />
<path fill="none" stroke="#987c81" stroke-width="8" d="M 1087.999,423.008 1087.931,422.108" />
<path fill="none" stroke="#987c81" stroke-width="2" d="M 1087.533,421.745 1087.886,421.525 1088.096,421.393 1088.684,421.026 1088.743,420.223 1088.911,417.914 1088.556,418.093 1088.182,416.831 1089.495,416.203 1089.576,417.431 1090.343,419.774 1089.891,421.499 1089.404,422.428 1088.579,422.935 1088.576,421.181" />
<path fill="none" stroke="#960013" stroke-width="2" d="M 1044.447,499.822 1046.409,500.662" />
<path fill="none" stroke="#960013" stroke-width="2" d="M 1029.127,493.265 1035.749,496.099" />
</svg>
