<?xml version="1.0" encoding="utf-8"?>
<!DOCTYPE svg PUBLIC "-//W3C//DTD SVG 1.0//EN"
"http://www.w3.org/TR/2000/CR-SVG-20001102/DTD/svg-20001102.dtd">
<svg xml:space="default" width="1920" height="1080">
<path fill="none" stroke="#960013" stroke-width="8" d="M 542.420,602.194 542.784,579.315 461.542,559.874 373.038,579.892 373.793,593.240" />
<path fill="none" stroke="#960013" stroke-width="2" d="M 373.038,579.892 453.250,602.415" />
<path fill="none" stroke="#960013" stroke-width="2" d="M 453.799,626.757 453.250,602.415 542.784,579.315" />
<path fill="none" stroke="#960013" stroke-width="8" d="M 428.385,633.801 427.550,609.045 373.793,593.240 347.804,585.599 242.072,609.513 244.466,630.523" />
<path fill="none" stroke="#960013" stroke-width="2" d="M 242.072,609.513 319.017,637.046" />
<path fill="none" stroke="#960013" stroke-width="2" d="M 321.178,663.514 319.017,637.046 375.448,622.487 427.550,609.045" />
<path fill="none" stroke="#960013" stroke-width="8" d="M 287.384,672.881 284.765,645.883 244.466,630.523 208.979,616.997 79.971,646.175 104.737,778.595 172.556,823.291 205.172,811.769" />
<path fill="none" stroke="#960013" stroke-width="2" d="M 79.971,646.175 149.924,680.671" />
<path fill="none" stroke="#960013" stroke-width="2" d="M 172.556,823.291 149.924,680.671 247.317,655.544 284.765,645.883" />
<path fill="none" stroke="#960013" stroke-width="8" d="M 427.726,718.858 427.484,711.998 427.065,700.121 395.597,688.127 378.799,681.724 363.130,675.752 353.647,672.137 326.878,661.934 321.178,663.514 287.384,672.881 250.459,683.115 218.623,691.939 189.271,700.074 196.391,750.087 205.172,811.769 210.359,848.205 300.627,907.696 322.045,898.189" />
<path fill="none" stroke="#960013" stroke-width="2" d="M 189.271,700.074 284.269,746.920" />
<path fill="none" stroke="#960013" stroke-width="2" d="M 300.627,907.696 287.894,782.548 284.269,746.920 286.054,746.336 294.249,743.650 365.945,720.152 410.799,705.452 427.065,700.121" />
<path fill="none" stroke="#960013" stroke-width="7" d="M 573.265,669.042 573.777,652.037 541.776,642.629 497.204,629.524 471.297,621.907 462.741,624.278 453.799,626.757 428.385,633.801 376.895,648.072 361.643,652.299 363.130,675.752" />
<path fill="none" stroke="#960013" stroke-width="2" d="M 361.643,652.299 377.454,657.957 429.831,676.699 462.673,688.450" />
<path fill="none" stroke="#960013" stroke-width="2" d="M 463.161,713.879 462.673,688.450 497.376,677.077 541.458,662.630 573.777,652.037" />
<path fill="none" stroke="#960013" stroke-width="8" d="M 687.709,629.870 688.948,614.291 586.888,589.869 542.420,602.194 497.151,614.741 497.204,629.524" />
<path fill="none" stroke="#960013" stroke-width="2" d="M 497.151,614.741 542.020,627.340 599.709,643.538" />
<path fill="none" stroke="#960013" stroke-width="2" d="M 599.018,660.227 599.709,643.538 688.948,614.291" />
<path fill="none" stroke="#960013" stroke-width="7" d="M 716.921,825.556 738.679,834.092 820.783,787.651 841.021,650.682 715.006,620.527 687.709,629.870 626.115,650.953 625.253,667.172" />
<path fill="none" stroke="#960013" stroke-width="2" d="M 626.115,650.953 684.724,667.410 755.092,687.168" />
<path fill="none" stroke="#960013" stroke-width="2" d="M 738.679,834.092 755.092,687.168 841.021,650.682" />
<path fill="none" stroke="#960013" stroke-width="7" d="M 579.121,890.381 611.249,906.172 714.691,847.661 716.921,825.556 724.040,754.978 729.797,697.909 708.530,691.656 683.384,684.263 625.253,667.172 600.227,659.814 599.018,660.227 584.256,665.280 573.265,669.042 541.181,680.024 521.778,686.666 497.441,694.995 489.020,697.878 489.120,711.465 489.212,723.808" />
<path fill="none" stroke="#960013" stroke-width="2" d="M 489.020,697.878 497.463,700.899 508.177,704.733 571.510,727.396 619.724,744.648" />
<path fill="none" stroke="#960013" stroke-width="2" d="M 611.249,906.172 618.574,766.566 619.724,744.648 621.170,744.034 680.640,718.782 729.797,697.909" />
<path fill="none" stroke="#960013" stroke-width="8" d="M 442.848,1001.426 577.865,925.055 579.121,890.381 582.251,804.032 583.370,773.158 583.851,759.880 570.684,754.861 514.062,733.280 497.557,726.989 489.212,723.808 472.719,717.522 472.361,717.385 463.161,713.879 455.698,711.034 453.278,710.112 436.935,715.706 431.212,717.664 427.726,718.858 412.732,723.990 367.177,739.582 333.917,750.967 328.470,752.831 311.256,758.723 309.454,759.340 313.958,809.002 322.045,898.189 324.323,923.313 442.848,1001.426" />
<path fill="none" stroke="#960013" stroke-width="2" d="M 309.454,759.340 431.277,819.414 437.000,822.236" />
<path fill="none" stroke="#960013" stroke-width="2" d="M 442.848,1001.426 437.000,822.236 438.865,821.444 489.776,799.826 567.367,766.880 570.360,765.609 583.851,759.880" />
</svg>
